<svg width="100" height="100" viewBox="0 0 100 100" fill="none" xmlns="http://www.w3.org/2000/svg">
<path d="M49.5952 0C43.7501 19.0145 43.7501 19.0145 37.9048 38.0289C36.3974 38.0147 34.7802 38.5847 33.3827 37.9866C28.757 36.0069 24.6242 32.8525 20.234 30.3425C19.7762 30.8841 19.7547 30.9984 19.297 31.54C19.6187 32.0366 19.7536 32.7599 20.2623 33.0298C23.8352 34.9255 27.638 36.2912 31.326 37.9217C15.663 38.0289 7.83057 36.9434 0 38.1361C0.0486349 39.8096 1.1783 41.9946 1.1783 41.9946C1.1783 41.9946 3.84167 45.296 4.01762 45.7896C4.83418 48.0804 6.19157 51.4706 7.58696 53.4234C9.16166 55.6274 10.9163 57.8003 13.106 59.3049C15.6487 61.052 18.7074 61.7609 21.5081 62.9888C21.3389 63.8842 20.9498 64.7632 21.0003 65.6748C21.0474 66.5224 21.3697 67.3581 21.7908 68.081C22.434 69.1852 23.2377 70.1978 24.1442 71.0711C25.0186 71.9139 26.1022 72.4758 27.0812 73.1784C23.1306 86.4553 23.1306 86.4553 19.1802 99.7323C33.4008 88.9127 33.4008 88.9127 47.6214 78.0934C46.4829 82.7264 46.4829 82.7264 45.3443 87.3596C46.469 84.0582 47.42 80.6847 48.7188 77.4555C48.8893 77.0318 49.3706 76.8451 49.6965 76.54C50.3082 76.9939 51.2002 77.1932 51.5316 77.9016C52.9366 80.9054 53.682 84.207 54.7571 87.3596C53.7198 83.0477 53.7198 83.0477 52.6823 78.736C66.5487 89.3682 66.5487 89.3682 80.415 100C76.4171 86.7702 76.4171 86.7702 72.4191 73.5406C73.5764 72.7135 74.8327 72.0236 75.8909 71.0594C76.8136 70.2189 77.6581 69.2533 78.3151 68.1685C78.7606 67.4331 79.084 66.5685 79.1393 65.6969C79.1974 64.7796 78.8089 63.8915 78.6438 62.9888C81.2241 61.9003 84.0337 61.289 86.3847 59.7234C88.6365 58.2237 90.5591 56.1574 92.2135 53.952C93.7235 51.9394 94.8105 49.5834 95.7651 47.2204C96.1408 46.2905 99.571 40.7548 100 38.2433C84.2613 38.1361 84.2612 38.1361 68.5223 38.0289C72.2517 36.394 76.1131 35.0626 79.7104 33.1244C80.2913 32.8113 80.4409 31.9818 80.8062 31.4104C80.3565 30.9195 80.3565 30.9195 79.9065 30.4289C75.4658 32.9868 71.2881 36.1403 66.5844 38.1027C64.9971 38.765 63.1721 38.1158 61.4659 38.1224C55.5305 19.0611 55.5305 19.0611 49.5952 0Z" fill="#664C43"/>
<path d="M21.9011 62.2079C21.704 63.2623 21.102 64.3193 21.3097 65.3714C21.5833 66.7584 22.3604 68.037 23.2584 69.0876C24.3581 70.3747 25.7437 71.3909 27.1759 72.2356C28.7746 73.1783 30.4908 73.9507 32.2707 74.4028C34.5863 74.9908 36.9793 75.3452 39.3608 75.3304C40.7075 75.3221 42.1423 75.0801 43.29 74.3342C44.4829 73.5588 45.4505 72.3227 46.0495 70.9835C47.2444 68.3126 47.7307 65.3472 48.5713 62.5292C48.6905 65.6114 48.6863 68.7016 48.9286 71.7756C48.9766 72.3844 49.1163 73.0199 49.438 73.527C49.6137 73.8042 50.0132 73.8017 50.3008 73.9391C50.5845 73.2244 51.0674 72.5654 51.1522 71.7954C51.4903 68.7242 51.4221 65.6178 51.5571 62.5292C52.3685 65.2302 52.8822 68.0523 53.9912 70.632C54.5837 72.0103 55.3858 73.4322 56.5933 74.2446C57.8461 75.0872 59.45 75.2291 60.9327 75.3016C62.9767 75.4014 65.0545 75.2371 67.0492 74.7551C68.9746 74.2899 70.8346 73.4795 72.5734 72.4883C74.0378 71.6535 75.4258 70.6041 76.5713 69.3275C77.4976 68.2953 78.3477 67.0649 78.6778 65.6848C78.9532 64.5343 78.4187 63.3268 78.2892 62.148C80.7907 61.0856 83.2971 60.4811 85.6669 59.1216C87.3017 58.1837 88.9194 56.7615 90.1869 55.3216C91.914 53.3594 93.589 51.2571 94.6971 48.8455C95.5107 47.075 99.6394 40.3523 99.5701 38.3849C99.539 37.5076 96.103 36.5409 91.3058 36.6236C86.5086 36.7063 85.9921 37.1956 80.3811 38.7158C75.2185 40.1144 73.6 41.3581 68.7112 43.6027C62.7789 46.3266 57.4646 50.3606 51.8412 53.7397C51.6223 52.9135 51.6959 51.9267 51.1842 51.2613C50.8046 50.7674 50.0428 50.859 49.4721 50.6579C48.8951 52.2014 48.8951 52.2014 48.3182 53.7449C44.9873 51.6399 41.7541 49.351 38.3254 47.4297C34.8626 45.4895 33.0813 42.5853 25.9616 40.0264C18.8419 37.4676 14.6763 37.1952 9.84684 37.194C5.01745 37.1929 0.333331 37.6138 0.114513 38.4004C-0.17043 39.4247 4.0267 44.9181 4.38142 45.9177C5.29856 48.5022 6.5778 50.976 8.16338 53.1681C9.6207 55.1826 11.3641 57.0458 13.4 58.3855C16.0147 60.1061 19.0674 60.9336 21.9011 62.2079Z" fill="#FFD95A"/>
<path d="M79.5936 30.1243C72.9829 34.095 66.1147 37.6201 59.7614 42.0364C56.5773 44.2498 53.9888 47.2984 51.1024 49.9294C55.3805 46.5362 59.3239 42.6105 63.9363 39.7498C68.8118 36.7258 74.3402 35.058 79.3941 32.3824C79.8724 32.1292 80.052 31.49 80.3811 31.0436C79.9872 30.5841 79.9872 30.5841 79.5936 30.1243Z" fill="#FFD95A"/>
<path d="M19.4321 30.8584C19.9388 31.3367 20.3441 31.974 20.9523 32.2935C25.645 34.7594 30.7512 36.3548 35.2615 39.1762C40.1761 42.2509 44.4722 46.3178 49.0774 49.8886C47.9099 48.6125 46.8618 47.2011 45.5753 46.0602C43.7704 44.4596 41.8273 43.0315 39.8388 41.6962C34.3999 38.0441 28.9465 34.4008 23.3072 31.1065C22.3129 30.5256 21.1624 30.197 20.0286 30.1243C19.7243 30.1049 19.631 30.6136 19.4321 30.8584Z" fill="#FFD95A"/>
<path d="M51.5808 76.3098C52.1487 78.1058 52.7501 79.703 53.2843 81.6979C53.5518 82.6975 53.9329 84.0556 54.1635 85.2415C53.812 83.7106 53.2124 81.8332 52.8179 80.5397C52.4011 79.1724 51.9976 78.5332 51.5567 77.3213C51.5148 77.2066 51.5096 76.92 51.4863 76.7193C51.5336 76.5146 51.5336 76.5146 51.5808 76.3098Z" fill="#FFD95A"/>
<path d="M48.6943 76.6824C48.6421 76.9253 48.6017 77.248 48.5376 77.4109C48.044 78.6674 47.5009 79.4851 47.0287 80.9207C46.5142 82.485 46.0717 84.5493 45.593 86.3634C45.7124 85.7162 45.8182 85.0009 45.9512 84.4218C46.1378 83.6091 46.3401 82.8833 46.5478 82.2044C47.1159 80.3469 47.6855 78.4939 48.2772 76.817C48.3815 76.5213 48.5041 76.3526 48.6261 76.3131C48.6587 76.3025 48.6715 76.5594 48.6943 76.6824Z" fill="#FFD95A"/>
</svg>
