<svg width="20" height="20" viewBox="0 0 20 20" fill="none" xmlns="http://www.w3.org/2000/svg">
<path d="M10.6754 3.70734C10.6765 3.34745 10.6056 2.99098 10.4669 2.6589C10.3281 2.32681 10.1244 2.02582 9.86765 1.77363C9.61091 1.52143 9.30632 1.32313 8.97181 1.19037C8.6373 1.05761 8.27962 0.993086 7.9198 1.00059C7.55999 1.00809 7.20531 1.08746 6.87662 1.23404C6.54793 1.38062 6.25187 1.59145 6.00586 1.85412C5.75984 2.1168 5.56883 2.42602 5.44407 2.76359C5.31931 3.10116 5.2633 3.46028 5.27936 3.81981C4.75046 3.9558 4.25945 4.21037 3.8435 4.56422C3.42755 4.91808 3.09757 5.36194 2.87857 5.86221C2.65956 6.36247 2.55727 6.90601 2.57943 7.45166C2.60159 7.99731 2.74763 8.53077 3.00648 9.01163C2.55135 9.38138 2.19345 9.85674 1.96392 10.3963C1.7344 10.936 1.64019 11.5235 1.68951 12.1078C1.73882 12.6921 1.93016 13.2556 2.24688 13.7491C2.5636 14.2426 2.9961 14.6512 3.50677 14.9395C3.44371 15.4274 3.48134 15.923 3.61734 16.3958C3.75334 16.8686 3.98482 17.3085 4.29749 17.6883C4.61016 18.0681 4.99737 18.3798 5.43522 18.6041C5.87307 18.8284 6.35225 18.9606 6.84318 18.9924C7.33411 19.0243 7.82636 18.9552 8.28952 18.7893C8.75269 18.6235 9.17694 18.3645 9.53607 18.0282C9.89521 17.692 10.1816 17.2857 10.3776 16.8345C10.5735 16.3833 10.6749 15.8966 10.6754 15.4047V3.70734Z" stroke="#45413F" stroke-width="2" stroke-linecap="round" stroke-linejoin="round"/>
<path d="M7.97656 10.9056C8.73199 10.6398 9.39165 10.156 9.87214 9.5154C10.3526 8.87475 10.6323 8.10602 10.6759 7.3064" stroke="#45413F" stroke-width="2" stroke-linecap="round" stroke-linejoin="round"/>
<path d="M5.2793 3.81958C5.29709 4.25484 5.41996 4.67933 5.63742 5.0568" stroke="#45413F" stroke-width="2" stroke-linecap="round" stroke-linejoin="round"/>
<path d="M3.00586 9.01257C3.17047 8.8785 3.34661 8.75927 3.53224 8.65625" stroke="#45413F" stroke-width="2" stroke-linecap="round" stroke-linejoin="round"/>
<path d="M5.27673 15.4045C4.65662 15.4048 4.04695 15.2448 3.50684 14.9402" stroke="#45413F" stroke-width="2" stroke-linecap="round" stroke-linejoin="round"/>
<path d="M10.6758 10.9058H14.275" stroke="#45413F" stroke-width="2" stroke-linecap="round" stroke-linejoin="round"/>
<path d="M10.6758 15.4045H16.0745C16.5518 15.4045 17.0096 15.5941 17.347 15.9316C17.6845 16.2691 17.8741 16.7268 17.8741 17.2041V18.1039" stroke="#45413F" stroke-width="2" stroke-linecap="round" stroke-linejoin="round"/>
<path d="M10.6758 6.40674H17.8741" stroke="#45413F" stroke-width="2" stroke-linecap="round" stroke-linejoin="round"/>
<path d="M14.2744 6.40669V3.7073C14.2744 3.23002 14.464 2.77229 14.8015 2.4348C15.139 2.09731 15.5967 1.90771 16.074 1.90771" stroke="#45413F" stroke-width="2" stroke-linecap="round" stroke-linejoin="round"/>
<path d="M14.2751 11.3554C14.5236 11.3554 14.725 11.1539 14.725 10.9055C14.725 10.657 14.5236 10.4556 14.2751 10.4556C14.0266 10.4556 13.8252 10.657 13.8252 10.9055C13.8252 11.1539 14.0266 11.3554 14.2751 11.3554Z" stroke="#45413F" stroke-width="2" stroke-linecap="round" stroke-linejoin="round"/>
<path d="M16.0749 2.35756C16.3234 2.35756 16.5248 2.15613 16.5248 1.90766C16.5248 1.65919 16.3234 1.45776 16.0749 1.45776C15.8264 1.45776 15.625 1.65919 15.625 1.90766C15.625 2.15613 15.8264 2.35756 16.0749 2.35756Z" stroke="#45413F" stroke-width="2" stroke-linecap="round" stroke-linejoin="round"/>
<path d="M17.8737 18.5538C18.1222 18.5538 18.3236 18.3524 18.3236 18.1039C18.3236 17.8555 18.1222 17.6541 17.8737 17.6541C17.6253 17.6541 17.4238 17.8555 17.4238 18.1039C17.4238 18.3524 17.6253 18.5538 17.8737 18.5538Z" stroke="#45413F" stroke-width="2" stroke-linecap="round" stroke-linejoin="round"/>
<path d="M17.8737 6.85658C18.1222 6.85658 18.3236 6.65516 18.3236 6.40668C18.3236 6.15821 18.1222 5.95679 17.8737 5.95679C17.6253 5.95679 17.4238 6.15821 17.4238 6.40668C17.4238 6.65516 17.6253 6.85658 17.8737 6.85658Z" stroke="#45413F" stroke-width="2" stroke-linecap="round" stroke-linejoin="round"/>
</svg>
