<svg width="20" height="20" viewBox="0 0 20 20" fill="none" xmlns="http://www.w3.org/2000/svg">
<path d="M15.3998 1H4.5998C3.60569 1 2.7998 1.80589 2.7998 2.8V17.2C2.7998 18.1941 3.60569 19 4.5998 19H15.3998C16.3939 19 17.1998 18.1941 17.1998 17.2V2.8C17.1998 1.80589 16.3939 1 15.3998 1Z" stroke="#45413F" stroke-width="2" stroke-linecap="round" stroke-linejoin="round"/>
<path d="M7.2998 18.9999V15.3999H12.6998V18.9999" stroke="#45413F" stroke-width="2" stroke-linecap="round" stroke-linejoin="round"/>
<path d="M6.39941 4.6001H6.40841" stroke="#45413F" stroke-width="2" stroke-linecap="round" stroke-linejoin="round"/>
<path d="M13.5996 4.6001H13.6086" stroke="#45413F" stroke-width="2" stroke-linecap="round" stroke-linejoin="round"/>
<path d="M10 4.6001H10.009" stroke="#45413F" stroke-width="2" stroke-linecap="round" stroke-linejoin="round"/>
<path d="M10 8.19995H10.009" stroke="#45413F" stroke-width="2" stroke-linecap="round" stroke-linejoin="round"/>
<path d="M10 11.8H10.009" stroke="#45413F" stroke-width="2" stroke-linecap="round" stroke-linejoin="round"/>
<path d="M13.5996 8.19995H13.6086" stroke="#45413F" stroke-width="2" stroke-linecap="round" stroke-linejoin="round"/>
<path d="M13.5996 11.8H13.6086" stroke="#45413F" stroke-width="2" stroke-linecap="round" stroke-linejoin="round"/>
<path d="M6.39941 8.19995H6.40841" stroke="#45413F" stroke-width="2" stroke-linecap="round" stroke-linejoin="round"/>
<path d="M6.39941 11.8H6.40841" stroke="#45413F" stroke-width="2" stroke-linecap="round" stroke-linejoin="round"/>
</svg>
