<svg width="20" height="22" viewBox="0 0 20 22" fill="none" xmlns="http://www.w3.org/2000/svg">
<path d="M10 12V1L18 5L10 9" stroke="#45413F" stroke-width="2" stroke-linecap="round" stroke-linejoin="round"/>
<path d="M18.5607 9.22213C19.0928 10.8623 19.1426 12.6208 18.7041 14.2884C18.2656 15.956 17.3573 17.4626 16.0872 18.6288C14.8172 19.7951 13.2388 20.5719 11.5399 20.867C9.84104 21.162 8.09316 20.9628 6.50424 20.293C4.91532 19.6233 3.55224 18.5112 2.57717 17.089C1.6021 15.6669 1.05609 13.9946 1.00409 12.2711C0.9521 10.5475 1.39631 8.84535 2.28388 7.36702C3.17145 5.88869 4.46502 4.69644 6.01068 3.93213" stroke="#45413F" stroke-width="2" stroke-linecap="round" stroke-linejoin="round"/>
<path d="M6.00238 8.99707C5.50129 9.66409 5.17506 10.4459 5.05343 11.2713C4.93179 12.0966 5.01862 12.9393 5.30599 13.7225C5.59336 14.5057 6.07214 15.2046 6.69871 15.7554C7.32529 16.3063 8.07973 16.6916 8.89332 16.8762C9.7069 17.0609 10.5538 17.039 11.3567 16.8127C12.1597 16.5863 12.8933 16.1626 13.4906 15.5802C14.0879 14.9977 14.53 14.2751 14.7766 13.4781C15.0232 12.6811 15.0664 11.8351 14.9024 11.0171" stroke="#45413F" stroke-width="2" stroke-linecap="round" stroke-linejoin="round"/>
</svg>
