<svg width="20" height="20" viewBox="0 0 20 20" fill="none" xmlns="http://www.w3.org/2000/svg">
<path d="M9.08876 9.1269H10.8863C11.3631 9.1269 11.8203 8.93751 12.1574 8.6004C12.4945 8.26329 12.6839 7.80607 12.6839 7.32932C12.6839 6.85257 12.4945 6.39535 12.1574 6.05824C11.8203 5.72113 11.3631 5.53174 10.8863 5.53174H8.18997C7.6507 5.53174 7.2013 5.7115 6.93166 6.07101L1.89844 10.9245" stroke="#45413F" stroke-width="2" stroke-linecap="round" stroke-linejoin="round"/>
<path d="M5.49414 14.5196L6.93221 13.2613C7.20184 12.9018 7.65124 12.7221 8.19051 12.7221H11.7857C12.7743 12.7221 13.6731 12.3625 14.3023 11.6435L18.4367 7.68883C18.7836 7.36106 18.986 6.90894 18.9995 6.43193C19.013 5.95492 18.8364 5.49208 18.5086 5.14525C18.1809 4.79842 17.7287 4.59599 17.2517 4.58251C16.7747 4.56902 16.3119 4.74558 15.9651 5.07335L12.1901 8.57863" stroke="#45413F" stroke-width="2" stroke-linecap="round" stroke-linejoin="round"/>
<path d="M1 10.0256L6.39274 15.4184" stroke="#45413F" stroke-width="2" stroke-linecap="round" stroke-linejoin="round"/>
</svg>
