<svg width="20" height="20" viewBox="0 0 20 20" fill="none" xmlns="http://www.w3.org/2000/svg">
<path d="M16.3 11.7999C17.641 10.4859 19 8.9109 19 6.8499C19 5.53708 18.4785 4.27803 17.5502 3.34972C16.6219 2.42142 15.3628 1.8999 14.05 1.8999C12.466 1.8999 11.35 2.3499 10 3.6999C8.65 2.3499 7.534 1.8999 5.95 1.8999C4.63718 1.8999 3.37813 2.42142 2.44982 3.34972C1.52152 4.27803 1 5.53708 1 6.8499C1 8.9199 2.35 10.4949 3.7 11.7999L10 18.0999L16.3 11.7999Z" stroke="#45413F" stroke-width="2" stroke-linecap="round" stroke-linejoin="round"/>
<path d="M9.99985 3.69995L7.33585 6.36395C7.15299 6.54549 7.00786 6.76141 6.90882 6.99929C6.80978 7.23716 6.75879 7.49228 6.75879 7.74995C6.75879 8.00762 6.80978 8.26274 6.90882 8.50062C7.00786 8.73849 7.15299 8.95442 7.33585 9.13595C8.07385 9.87395 9.25285 9.90095 10.0358 9.19895L11.8988 7.48895C12.3658 7.06523 12.9738 6.8305 13.6043 6.8305C14.2349 6.8305 14.8429 7.06523 15.3098 7.48895L17.9738 9.88295" stroke="#45413F" stroke-width="2" stroke-linecap="round" stroke-linejoin="round"/>
<path d="M15.3996 12.6999L13.5996 10.8999" stroke="#45413F" stroke-width="2" stroke-linecap="round" stroke-linejoin="round"/>
<path d="M12.7004 15.3999L10.9004 13.5999" stroke="#45413F" stroke-width="2" stroke-linecap="round" stroke-linejoin="round"/>
</svg>
