<svg width="22" height="21" viewBox="0 0 22 21" fill="none" xmlns="http://www.w3.org/2000/svg">
<path d="M12.1796 14.9372L12.1796 14.937C12.4605 14.0269 13.1544 13.2923 13.7479 12.6652L12.1796 14.9372ZM12.1796 14.9372C12.1392 15.0687 12.0975 15.2589 12.0859 15.6142H9.88733C9.87673 15.2355 9.83328 15.0358 9.79384 14.8978L9.79386 14.8978L9.79336 14.8962C9.51437 13.9793 8.82708 13.261 8.28731 12.6968L8.27998 12.6891L8.27979 12.6889C8.27025 12.679 8.26075 12.6692 8.25129 12.6593C8.10352 12.5058 7.9661 12.363 7.84011 12.2178L7.83988 12.2176C7.27833 11.5754 6.98351 10.809 6.98351 9.99969C6.98351 8.02117 8.77588 6.39371 11.0013 6.39371C13.2266 6.39371 15.0177 8.02113 15.0177 9.99969C15.0177 10.8106 14.7223 11.5764 14.1614 12.2186C14.0457 12.3498 13.9157 12.4875 13.7665 12.6455L13.748 12.6652L12.1796 14.9372ZM8.5115 15.8715V15.8727V16.2448C8.5115 16.6009 8.82873 16.8742 9.19975 16.8742H12.7718C13.1424 16.8742 13.4594 16.6007 13.4594 16.2436L13.4594 15.8686L13.4594 15.8678C13.4568 15.5733 13.4748 15.3763 13.5054 15.275C13.6016 14.9632 13.791 14.6548 14.0256 14.352C14.2601 14.0494 14.5351 13.7582 14.7989 13.4788L14.7989 13.4788C14.8171 13.4595 14.8353 13.4403 14.8534 13.4212C14.9894 13.2772 15.121 13.1379 15.2369 13.004C15.9938 12.1403 16.3949 11.1013 16.3949 9.99911C16.3949 7.30682 13.9643 5.13486 11.0006 5.13486C8.03629 5.13486 5.60508 7.3068 5.60508 9.99911C5.60508 11.1009 6.00822 12.1387 6.76305 13.0029C6.91188 13.1738 7.07334 13.3431 7.24291 13.5189C7.76126 14.061 8.27241 14.5978 8.46478 15.2316C8.49735 15.341 8.51537 15.5518 8.5115 15.8715Z" fill="#45413F" stroke="#45413F" stroke-width="0.2"/>
<path d="M9.19958 18.2761H12.7716C13.1422 18.2761 13.4593 18.0032 13.4593 17.6455C13.4593 17.2881 13.1418 17.0167 12.7716 17.0167H9.19958C8.82887 17.0167 8.51133 17.288 8.51133 17.6455C8.51133 18.0033 8.82849 18.2761 9.19958 18.2761Z" fill="#45413F" stroke="#45413F" stroke-width="0.2"/>
<path d="M10.0925 19.6761H11.8785C12.2473 19.6761 12.5668 19.4036 12.5668 19.0467C12.5668 18.6894 12.2475 18.4161 11.8785 18.4161H10.0925C9.72161 18.4161 9.40293 18.6893 9.40293 19.0467C9.40293 19.4037 9.72183 19.6761 10.0925 19.6761Z" fill="#45413F" stroke="#45413F" stroke-width="0.2"/>
<path d="M18.0593 10.6291H20.4123C20.7825 10.6291 21.0999 10.3576 21.0999 9.99964C21.0999 9.64232 20.7826 9.37021 20.4123 9.37021H18.0593C17.6894 9.37021 17.3697 9.64192 17.3697 9.99964C17.3697 10.358 17.6895 10.6291 18.0593 10.6291Z" fill="#45413F" stroke="#45413F" stroke-width="0.2"/>
<path d="M4.63014 9.99953C4.63008 9.64186 4.31041 9.37021 3.9406 9.37021H1.5876C1.21731 9.37021 0.9 9.64232 0.9 9.99964C0.9 10.3576 1.21739 10.6291 1.5876 10.6291H3.94125C4.31091 10.6291 4.63087 10.3581 4.63014 9.99953ZM4.63014 9.99953C4.63014 9.99949 4.63014 9.99946 4.63014 9.99942L4.53014 9.99964H4.63014C4.63014 9.9996 4.63014 9.99957 4.63014 9.99953Z" fill="#45413F" stroke="#45413F" stroke-width="0.2"/>
<path d="M10.3092 3.64829C10.3092 4.00659 10.6282 4.27771 10.9987 4.27771C11.3697 4.27771 11.687 4.00561 11.687 3.6477V1.52942C11.687 1.17268 11.3697 0.9 10.9987 0.9C10.6281 0.9 10.3092 1.17242 10.3092 1.52942V3.64829Z" fill="#45413F" stroke="#45413F" stroke-width="0.2"/>
<path d="M17.1702 16.4376L17.1702 16.4376L15.5068 14.9399C15.5068 14.9399 15.5068 14.9399 15.5067 14.9399L15.5067 14.9398L15.5736 14.8655L17.1702 16.4376ZM17.1702 16.4376C17.3056 16.5594 17.4803 16.6188 17.6525 16.6188M17.1702 16.4376L17.6525 16.6188M17.6525 16.6188C17.8264 16.6188 18.0008 16.5611 18.1361 16.4387L17.6525 16.6188Z" fill="#45413F" stroke="#45413F" stroke-width="0.2"/>
<path d="M5.52406 5.95689L5.52384 5.95669L3.86166 4.46015L3.86165 4.46014L3.92856 4.38582L5.52406 5.95689ZM5.52406 5.95689C5.66006 6.07861 5.83535 6.13795 6.00743 6.13795M5.52406 5.95689L6.00743 6.13795M6.00743 6.13795C6.18121 6.13795 6.35609 6.07874 6.49107 5.95665M6.00743 6.13795L6.49107 5.95665M6.49107 5.95665C6.76543 5.71025 6.76539 5.30433 6.49095 5.05798C6.49093 5.05796 6.49092 5.05795 6.4909 5.05793L6.49107 5.95665Z" fill="#45413F" stroke="#45413F" stroke-width="0.2"/>
<path d="M5.59333 14.1162C5.82167 13.9095 6.19384 13.9095 6.42411 14.1162C6.65438 14.3234 6.65438 14.6595 6.42411 14.8668L6.49102 14.9411C6.76541 14.6941 6.76541 14.2888 6.491 14.0418L6.4909 14.0418C6.22283 13.8012 5.79294 13.8008 5.52634 14.0419L5.52644 14.0418L5.59333 14.1162ZM4.82754 16.4388L6.491 14.9411L5.52623 14.042L3.86166 15.5401C3.58732 15.7871 3.58716 16.1925 3.86177 16.4389L3.92856 16.3645L3.86166 16.4388C3.99747 16.561 4.17241 16.6189 4.34459 16.6189C4.51772 16.6189 4.6918 16.5603 4.82731 16.439L4.82754 16.4388Z" fill="#45413F" stroke="#45413F" stroke-width="0.2"/>
<path d="M18.1361 3.56134C17.8689 3.32022 17.4363 3.3217 17.1701 3.56254C17.17 3.56257 17.17 3.56261 17.17 3.56264L15.5067 5.05958L15.5065 5.05977C15.2343 5.30613 15.2343 5.71055 15.5065 5.95691L15.5069 5.95729C15.6429 6.07897 15.8175 6.13835 15.9903 6.13835C16.1646 6.13835 16.3393 6.07764 16.4739 5.95587C16.474 5.95583 16.474 5.95579 16.4741 5.95575L18.136 4.45939C18.4104 4.21244 18.4104 3.80831 18.1361 3.56134ZM18.1361 3.56134C18.1361 3.56132 18.1361 3.5613 18.136 3.56129L18.0691 3.63562L18.1361 3.56138C18.1361 3.56137 18.1361 3.56135 18.1361 3.56134Z" fill="#45413F" stroke="#45413F" stroke-width="0.2"/>
</svg>
