<svg width="20" height="20" viewBox="0 0 20 20" fill="none" xmlns="http://www.w3.org/2000/svg">
<path d="M13.6 18.1V16.3C13.6 15.3452 13.2207 14.4295 12.5456 13.7544C11.8705 13.0792 10.9548 12.7 10 12.7H4.6C3.64522 12.7 2.72955 13.0792 2.05442 13.7544C1.37928 14.4295 1 15.3452 1 16.3V18.1" stroke="#45413F" stroke-width="2" stroke-linecap="round" stroke-linejoin="round"/>
<path d="M7.3002 9.0999C9.28842 9.0999 10.9002 7.48813 10.9002 5.4999C10.9002 3.51168 9.28842 1.8999 7.3002 1.8999C5.31197 1.8999 3.7002 3.51168 3.7002 5.4999C3.7002 7.48813 5.31197 9.0999 7.3002 9.0999Z" stroke="#45413F" stroke-width="2" stroke-linecap="round" stroke-linejoin="round"/>
<path d="M18.9998 18.0999V16.2999C18.9992 15.5022 18.7337 14.7274 18.245 14.097C17.7563 13.4666 17.0721 13.0163 16.2998 12.8169" stroke="#45413F" stroke-width="2" stroke-linecap="round" stroke-linejoin="round"/>
<path d="M13.5996 2.01685C14.374 2.21512 15.0603 2.66548 15.5505 3.29693C16.0406 3.92837 16.3067 4.70499 16.3067 5.50435C16.3067 6.3037 16.0406 7.08032 15.5505 7.71177C15.0603 8.34321 14.374 8.79358 13.5996 8.99185" stroke="#45413F" stroke-width="2" stroke-linecap="round" stroke-linejoin="round"/>
</svg>
