<svg height="100%" stroke-miterlimit="10" style="fill-rule:nonzero;clip-rule:evenodd;stroke-linecap:round;stroke-linejoin:round;" version="1.1" viewBox="84.3751 0 4631.25 4699.42" width="100%" xml:space="preserve" xmlns="http://www.w3.org/2000/svg" xmlns:vectornator="http://vectornator.io" xmlns:xlink="http://www.w3.org/1999/xlink">
<defs/>
<clipPath id="ArtboardFrame">
<rect height="4699.42" width="4631.25" x="84.3751" y="0"/>
</clipPath>
<g clip-path="url(#ArtboardFrame)" id="Layer" vectornator:layerName="Layer">
<g opacity="1" vectornator:layerName="BCA logo">
<path d="M2381.25 0C2110.55 832.031 2110.55 832.031 1839.84 1664.06C1770.03 1663.44 1695.13 1688.38 1630.41 1662.21C1416.18 1575.58 1224.78 1437.55 1021.46 1327.72C1000.26 1351.42 999.264 1356.42 978.066 1380.12C992.967 1401.85 999.214 1433.5 1022.77 1445.31C1188.24 1528.26 1364.36 1588.02 1535.16 1659.37C809.766 1664.06 447.028 1616.56 84.3751 1668.75C86.6275 1741.98 138.945 1837.59 138.945 1837.59C138.945 1837.59 262.292 1982.05 270.441 2003.65C308.258 2103.89 371.122 2252.24 435.746 2337.69C508.674 2434.13 589.936 2529.21 691.345 2595.05C809.103 2671.5 950.761 2702.52 1080.47 2756.25C1072.63 2795.43 1054.61 2833.89 1056.95 2873.78C1059.13 2910.87 1074.06 2947.44 1093.56 2979.07C1123.35 3027.39 1160.57 3071.7 1202.55 3109.91C1243.05 3146.79 1293.23 3171.38 1338.57 3202.12C1155.61 3783.09 1155.61 3783.09 972.656 4364.06C1631.25 3890.62 1631.25 3890.62 2289.84 3417.19C2237.11 3619.92 2237.11 3619.92 2184.38 3822.66C2236.47 3678.2 2280.51 3530.58 2340.66 3389.28C2348.56 3370.74 2370.85 3362.57 2385.94 3349.22C2414.27 3369.08 2455.58 3377.8 2470.93 3408.8C2536 3540.24 2570.52 3684.71 2620.31 3822.66C2572.27 3633.98 2572.27 3633.98 2524.22 3445.31C3166.41 3910.55 3166.41 3910.55 3808.59 4375.78C3623.44 3796.87 3623.44 3796.87 3438.28 3217.97C3491.88 3181.78 3550.06 3151.59 3599.07 3109.4C3641.8 3072.62 3680.91 3030.37 3711.34 2982.9C3731.97 2950.72 3746.95 2912.89 3749.51 2874.75C3752.2 2834.61 3734.21 2795.75 3726.56 2756.25C3846.06 2708.62 3976.18 2681.87 4085.06 2613.36C4189.35 2547.74 4278.39 2457.32 4355.01 2360.82C4424.94 2272.75 4475.28 2169.66 4519.49 2066.26C4536.89 2025.57 4695.75 1783.34 4715.62 1673.44C3986.72 1668.75 3986.72 1668.75 3257.81 1664.06C3430.53 1592.52 3609.36 1534.26 3775.96 1449.45C3802.86 1435.75 3809.79 1399.45 3826.71 1374.45C3805.88 1352.97 3805.88 1352.97 3785.04 1331.5C3579.38 1443.43 3385.9 1581.42 3168.06 1667.29C3094.55 1696.27 3010.03 1667.86 2931.01 1668.15C2656.13 834.073 2656.13 834.073 2381.25 0Z" fill="#4c3d3d" fill-rule="nonzero" opacity="1" stroke="none" vectornator:layerName="Star"/>
<g opacity="1" vectornator:layerName="Butterfly">
<path d="M1098.67 2722.08C1089.54 2768.22 1061.66 2814.47 1071.28 2860.51C1083.95 2921.2 1119.94 2977.15 1161.53 3023.12C1212.46 3079.44 1276.63 3123.91 1342.96 3160.87C1417 3202.12 1496.48 3235.92 1578.91 3255.7C1686.15 3281.43 1796.98 3296.94 1907.27 3296.29C1969.64 3295.93 2036.09 3285.34 2089.24 3252.7C2144.49 3218.77 2189.3 3164.68 2217.04 3106.08C2272.38 2989.21 2294.9 2859.45 2333.83 2736.14C2339.35 2871.01 2339.16 3006.23 2350.38 3140.74C2352.6 3167.38 2359.07 3195.19 2373.97 3217.38C2382.11 3229.51 2400.61 3229.4 2413.93 3235.41C2427.07 3204.14 2449.43 3175.3 2453.36 3141.61C2469.02 3007.22 2465.86 2871.29 2472.11 2736.14C2509.69 2854.33 2533.48 2977.82 2584.84 3090.7C2612.28 3151.01 2649.43 3213.23 2705.35 3248.78C2763.37 3285.65 2837.65 3291.86 2906.32 3295.03C3000.98 3299.4 3097.21 3292.21 3189.59 3271.12C3278.76 3250.76 3364.9 3215.3 3445.43 3171.93C3513.25 3135.4 3577.53 3089.48 3630.58 3033.62C3673.48 2988.45 3712.85 2934.61 3728.14 2874.22C3740.89 2823.88 3716.14 2771.04 3710.14 2719.46C3825.99 2672.97 3942.07 2646.52 4051.82 2587.03C4127.53 2545.99 4202.45 2483.76 4261.15 2420.75C4341.14 2334.89 4418.71 2242.9 4470.03 2137.37C4507.71 2059.9 4698.92 1765.73 4695.71 1679.64C4694.27 1641.25 4535.14 1598.95 4312.97 1602.57C4090.8 1606.19 4066.88 1627.6 3807.02 1694.12C3567.93 1755.32 3492.97 1809.74 3266.56 1907.96C2991.82 2027.15 2745.7 2203.67 2485.27 2351.53C2475.13 2315.38 2478.54 2272.2 2454.84 2243.08C2437.26 2221.47 2401.98 2225.48 2375.55 2216.68C2348.83 2284.22 2348.83 2284.22 2322.11 2351.76C2167.85 2259.65 2018.11 2159.49 1859.32 2075.42C1698.95 1990.52 1616.45 1863.44 1286.72 1751.47C956.992 1639.5 764.069 1627.58 540.407 1627.53C316.746 1627.48 99.8132 1645.9 89.6792 1680.32C76.4828 1725.14 270.862 1965.52 287.29 2009.26C329.765 2122.35 389.01 2230.6 462.442 2326.52C529.934 2414.67 610.676 2496.2 704.964 2554.82C826.056 2630.11 967.436 2666.32 1098.67 2722.08Z" fill="#ffd95a" fill-rule="nonzero" opacity="1" stroke="none" vectornator:layerName="Body"/>
<g opacity="1" vectornator:layerName="Feelers">
<path d="M3770.55 1318.17C3464.39 1491.92 3146.31 1646.17 2852.07 1839.42C2704.61 1936.27 2584.73 2069.67 2451.05 2184.8C2649.18 2036.32 2831.81 1864.54 3045.42 1739.36C3271.22 1607.04 3527.25 1534.06 3761.31 1416.98C3783.46 1405.9 3791.78 1377.93 3807.02 1358.4C3788.78 1338.29 3788.78 1338.29 3770.55 1318.17Z" fill="#ffd95a" fill-rule="nonzero" opacity="1" stroke="none"/>
<path d="M984.325 1350.29C1007.79 1371.22 1026.56 1399.11 1054.73 1413.09C1272.06 1520.99 1508.54 1590.8 1717.42 1714.26C1945.03 1848.8 2143.99 2026.76 2357.27 2183.01C2303.2 2127.17 2254.66 2065.41 2195.08 2015.49C2111.49 1945.45 2021.5 1882.96 1929.41 1824.53C1677.52 1664.72 1424.96 1505.3 1163.79 1361.15C1117.74 1335.73 1064.46 1321.35 1011.95 1318.17C997.858 1317.32 993.535 1339.58 984.325 1350.29Z" fill="#ffd95a" fill-rule="nonzero" opacity="1" stroke="none"/>
</g>
<g opacity="1" vectornator:layerName="limbs">
<path d="M2473.21 3339.14C2499.51 3417.73 2527.36 3487.62 2552.1 3574.91C2564.49 3618.65 2582.14 3678.08 2592.82 3729.97C2576.54 3662.98 2548.77 3580.83 2530.5 3524.23C2511.2 3464.4 2492.51 3436.43 2472.09 3383.4C2470.15 3378.38 2469.91 3365.84 2468.83 3357.06C2471.02 3348.1 2471.02 3348.1 2473.21 3339.14Z" fill="#ffd95a" fill-rule="nonzero" opacity="1" stroke="none"/>
<path d="M2339.53 3355.44C2337.11 3366.07 2335.24 3380.19 2332.27 3387.32C2309.41 3442.3 2284.26 3478.08 2262.39 3540.9C2238.56 3609.35 2218.07 3699.68 2195.9 3779.06C2201.43 3750.74 2206.33 3719.44 2212.49 3694.1C2221.13 3658.54 2230.5 3626.78 2240.12 3597.07C2266.43 3515.79 2292.81 3434.71 2320.21 3361.33C2325.04 3348.39 2330.72 3341.01 2336.37 3339.28C2337.88 3338.82 2338.47 3350.06 2339.53 3355.44Z" fill="#ffd95a" fill-rule="nonzero" opacity="1" stroke="none"/>
</g>
</g>
<g opacity="0" vectornator:layerName="Title">
<path d="M488.06 4561.34C499.281 4563.78 507.677 4567.68 513.248 4573.03C520.967 4580.5 524.827 4589.63 524.827 4600.43C524.827 4608.63 522.28 4616.48 517.187 4623.99C512.094 4631.5 505.11 4636.98 496.237 4640.43C487.364 4643.88 473.815 4645.6 455.591 4645.6L379.193 4645.6L379.193 4641.1L385.281 4641.1C392.046 4641.1 396.9 4638.91 399.845 4634.52C401.675 4631.68 402.59 4625.64 402.59 4616.38L402.59 4509.72C402.59 4499.49 401.436 4493.04 399.129 4490.36C396.025 4486.79 391.409 4485 385.281 4485L379.193 4485L379.193 4480.49L449.145 4480.49C462.196 4480.49 472.661 4481.47 480.54 4483.42C492.477 4486.34 501.589 4491.51 507.876 4498.94C514.163 4506.37 517.306 4514.91 517.306 4524.57C517.306 4532.85 514.839 4540.26 509.905 4546.79C504.971 4553.33 497.69 4558.18 488.06 4561.34ZM425.51 4554.77C428.454 4555.34 431.816 4555.76 435.596 4556.05C439.377 4556.33 443.535 4556.47 448.071 4556.47C459.69 4556.47 468.424 4555.2 474.273 4552.64C480.122 4550.08 484.598 4546.17 487.702 4540.89C490.806 4535.61 492.358 4529.85 492.358 4523.6C492.358 4513.94 488.498 4505.7 480.779 4498.88C473.059 4492.06 461.799 4488.65 446.996 4488.65C439.038 4488.65 431.876 4489.55 425.51 4491.33L425.51 4554.77ZM425.51 4633.67C434.741 4635.86 443.853 4636.96 452.846 4636.96C467.25 4636.96 478.232 4633.65 485.792 4627.04C493.352 4620.42 497.132 4612.24 497.132 4602.5C497.132 4596.09 495.422 4589.92 492 4583.99C488.578 4578.07 483.007 4573.4 475.288 4569.99C467.568 4566.58 458.018 4564.88 446.638 4564.88C441.704 4564.88 437.487 4564.96 433.985 4565.12C430.483 4565.28 427.658 4565.57 425.51 4565.97L425.51 4633.67Z" fill="#4c3d3d" fill-rule="nonzero" opacity="1" stroke="none"/>
<path d="M575.221 4576.08C575.141 4592.64 579.08 4605.63 587.038 4615.04C594.996 4624.46 604.347 4629.17 615.091 4629.17C622.253 4629.17 628.48 4627.16 633.772 4623.14C639.064 4619.12 643.501 4612.24 647.082 4602.5L650.783 4604.94C649.112 4616.06 644.257 4626.18 636.219 4635.32C628.182 4644.45 618.115 4649.01 606.018 4649.01C592.888 4649.01 581.647 4643.8 572.296 4633.37C562.945 4622.94 558.27 4608.91 558.27 4591.3C558.27 4572.22 563.065 4557.35 572.654 4546.67C582.244 4536 594.28 4530.66 608.764 4530.66C621.019 4530.66 631.086 4534.78 638.965 4543.02C646.843 4551.26 650.783 4562.28 650.783 4576.08L575.221 4576.08ZM575.221 4569.02L625.834 4569.02C625.436 4561.87 624.601 4556.84 623.327 4553.92C621.338 4549.37 618.373 4545.8 614.434 4543.2C610.495 4540.6 606.377 4539.31 602.079 4539.31C595.474 4539.31 589.565 4541.92 584.352 4547.16C579.14 4552.4 576.096 4559.68 575.221 4569.02Z" fill="#4c3d3d" fill-rule="nonzero" opacity="1" stroke="none"/>
<path d="M708.339 4530.78L708.339 4555.87C717.491 4539.14 726.881 4530.78 736.511 4530.78C740.887 4530.78 744.508 4532.14 747.373 4534.86C750.238 4537.58 751.671 4540.73 751.671 4544.3C751.671 4547.46 750.636 4550.14 748.567 4552.33C746.498 4554.53 744.031 4555.62 741.166 4555.62C738.381 4555.62 735.257 4554.22 731.795 4551.42C728.334 4548.62 725.767 4547.22 724.096 4547.22C722.663 4547.22 721.112 4548.03 719.44 4549.66C715.859 4552.98 712.159 4558.46 708.339 4566.09L708.339 4619.55C708.339 4625.72 709.095 4630.38 710.607 4633.55C711.641 4635.74 713.472 4637.57 716.098 4639.03C718.724 4640.49 722.504 4641.22 727.438 4641.22L727.438 4645.6L671.453 4645.6L671.453 4641.22C677.024 4641.22 681.162 4640.33 683.868 4638.54C685.857 4637.24 687.25 4635.17 688.046 4632.33C688.444 4630.95 688.643 4627.02 688.643 4620.52L688.643 4577.3C688.643 4564.31 688.384 4556.58 687.867 4554.1C687.349 4551.62 686.394 4549.82 685.002 4548.68C683.609 4547.55 681.878 4546.98 679.809 4546.98C677.342 4546.98 674.557 4547.59 671.453 4548.8L670.259 4544.42L703.325 4530.78L708.339 4530.78Z" fill="#4c3d3d" fill-rule="nonzero" opacity="1" stroke="none"/>
<path d="M822.238 4530.78C838.791 4530.78 852.081 4537.2 862.108 4550.02C870.624 4560.98 874.881 4573.56 874.881 4587.77C874.881 4597.75 872.534 4607.86 867.838 4618.09C863.143 4628.31 856.677 4636.03 848.44 4641.22C840.204 4646.42 831.032 4649.01 820.925 4649.01C804.452 4649.01 791.361 4642.32 781.652 4628.92C773.455 4617.64 769.357 4604.98 769.357 4590.93C769.357 4580.71 771.844 4570.54 776.818 4560.43C781.791 4550.33 788.337 4542.86 796.454 4538.03C804.571 4533.2 813.166 4530.78 822.238 4530.78ZM818.538 4538.7C814.32 4538.7 810.082 4539.98 805.825 4542.53C801.567 4545.09 798.125 4549.57 795.499 4555.99C792.873 4562.4 791.56 4570.64 791.56 4580.71C791.56 4596.94 794.723 4610.94 801.05 4622.71C807.377 4634.48 815.713 4640.37 826.058 4640.37C833.778 4640.37 840.144 4637.12 845.158 4630.63C850.171 4624.13 852.678 4612.97 852.678 4597.14C852.678 4577.34 848.5 4561.75 840.144 4550.39C834.494 4542.59 827.292 4538.7 818.538 4538.7Z" fill="#4c3d3d" fill-rule="nonzero" opacity="1" stroke="none"/>
<path d="M933.75 4497.42L933.75 4534.07L959.296 4534.07L959.296 4542.59L933.75 4542.59L933.75 4614.92C933.75 4622.15 934.765 4627.02 936.794 4629.53C938.824 4632.05 941.43 4633.31 944.613 4633.31C947.239 4633.31 949.786 4632.47 952.253 4630.81C954.72 4629.15 956.63 4626.69 957.983 4623.44L962.638 4623.44C959.853 4631.4 955.914 4637.39 950.821 4641.4C945.727 4645.42 940.475 4647.43 935.064 4647.43C931.403 4647.43 927.822 4646.4 924.32 4644.33C920.819 4642.26 918.232 4639.29 916.561 4635.44C914.89 4631.58 914.054 4625.64 914.054 4617.6L914.054 4542.59L896.745 4542.59L896.745 4538.58C901.122 4536.79 905.599 4533.77 910.175 4529.5C914.75 4525.24 918.829 4520.19 922.41 4514.34C924.241 4511.26 926.787 4505.62 930.05 4497.42L933.75 4497.42Z" fill="#4c3d3d" fill-rule="nonzero" opacity="1" stroke="none"/>
<path d="M1012.67 4497.42L1012.67 4534.07L1038.22 4534.07L1038.22 4542.59L1012.67 4542.59L1012.67 4614.92C1012.67 4622.15 1013.69 4627.02 1015.72 4629.53C1017.75 4632.05 1020.35 4633.31 1023.54 4633.31C1026.16 4633.31 1028.71 4632.47 1031.18 4630.81C1033.64 4629.15 1035.55 4626.69 1036.91 4623.44L1041.56 4623.44C1038.78 4631.4 1034.84 4637.39 1029.74 4641.4C1024.65 4645.42 1019.4 4647.43 1013.99 4647.43C1010.33 4647.43 1006.75 4646.4 1003.24 4644.33C999.742 4642.26 997.156 4639.29 995.485 4635.44C993.813 4631.58 992.978 4625.64 992.978 4617.6L992.978 4542.59L975.669 4542.59L975.669 4538.58C980.046 4536.79 984.522 4533.77 989.098 4529.5C993.674 4525.24 997.753 4520.19 1001.33 4514.34C1003.16 4511.26 1005.71 4505.62 1008.97 4497.42L1012.67 4497.42Z" fill="#4c3d3d" fill-rule="nonzero" opacity="1" stroke="none"/>
<path d="M1078.23 4576.08C1078.15 4592.64 1082.09 4605.63 1090.05 4615.04C1098 4624.46 1107.35 4629.17 1118.1 4629.17C1125.26 4629.17 1131.49 4627.16 1136.78 4623.14C1142.07 4619.12 1146.51 4612.24 1150.09 4602.5L1153.79 4604.94C1152.12 4616.06 1147.26 4626.18 1139.23 4635.32C1131.19 4644.45 1121.12 4649.01 1109.03 4649.01C1095.9 4649.01 1084.65 4643.8 1075.3 4633.37C1065.95 4622.94 1061.28 4608.91 1061.28 4591.3C1061.28 4572.22 1066.07 4557.35 1075.66 4546.67C1085.25 4536 1097.29 4530.66 1111.77 4530.66C1124.03 4530.66 1134.09 4534.78 1141.97 4543.02C1149.85 4551.26 1153.79 4562.28 1153.79 4576.08L1078.23 4576.08ZM1078.23 4569.02L1128.84 4569.02C1128.44 4561.87 1127.61 4556.84 1126.33 4553.92C1124.35 4549.37 1121.38 4545.8 1117.44 4543.2C1113.5 4540.6 1109.38 4539.31 1105.09 4539.31C1098.48 4539.31 1092.57 4541.92 1087.36 4547.16C1082.15 4552.4 1079.1 4559.68 1078.23 4569.02Z" fill="#4c3d3d" fill-rule="nonzero" opacity="1" stroke="none"/>
<path d="M1391.02 4476.72L1394.72 4532.85L1391.02 4532.85C1386.09 4516.05 1379.04 4503.95 1369.89 4496.57C1360.74 4489.18 1349.76 4485.49 1336.94 4485.49C1326.2 4485.49 1316.49 4488.27 1307.82 4493.83C1299.14 4499.39 1292.32 4508.26 1287.35 4520.43C1282.37 4532.61 1279.88 4547.75 1279.88 4565.85C1279.88 4580.79 1282.23 4593.73 1286.93 4604.69C1291.62 4615.65 1298.69 4624.05 1308.12 4629.9C1317.55 4635.74 1328.31 4638.66 1340.41 4638.66C1350.91 4638.66 1360.18 4636.37 1368.22 4631.78C1376.26 4627.2 1385.09 4618.09 1394.72 4604.45L1398.42 4606.88C1390.3 4621.58 1380.83 4632.33 1370.01 4639.15C1359.19 4645.97 1346.33 4649.38 1331.45 4649.38C1304.63 4649.38 1283.86 4639.23 1269.14 4618.94C1258.16 4603.84 1252.67 4586.06 1252.67 4565.61C1252.67 4549.13 1256.29 4533.99 1263.53 4520.19C1270.77 4506.39 1280.74 4495.69 1293.43 4488.1C1306.13 4480.51 1319.99 4476.72 1335.03 4476.72C1346.73 4476.72 1358.27 4479.64 1369.65 4485.49C1372.99 4487.27 1375.38 4488.17 1376.81 4488.17C1378.96 4488.17 1380.83 4487.39 1382.42 4485.85C1384.49 4483.66 1385.97 4480.62 1386.84 4476.72L1391.02 4476.72Z" fill="#4c3d3d" fill-rule="nonzero" opacity="1" stroke="none"/>
<path d="M1479.02 4530.78C1495.57 4530.78 1508.86 4537.2 1518.89 4550.02C1527.4 4560.98 1531.66 4573.56 1531.66 4587.77C1531.66 4597.75 1529.31 4607.86 1524.62 4618.09C1519.92 4628.31 1513.45 4636.03 1505.22 4641.22C1496.98 4646.42 1487.81 4649.01 1477.7 4649.01C1461.23 4649.01 1448.14 4642.32 1438.43 4628.92C1430.23 4617.64 1426.13 4604.98 1426.13 4590.93C1426.13 4580.71 1428.62 4570.54 1433.59 4560.43C1438.57 4550.33 1445.11 4542.86 1453.23 4538.03C1461.35 4533.2 1469.94 4530.78 1479.02 4530.78ZM1475.32 4538.7C1471.1 4538.7 1466.86 4539.98 1462.6 4542.53C1458.34 4545.09 1454.9 4549.57 1452.28 4555.99C1449.65 4562.4 1448.34 4570.64 1448.34 4580.71C1448.34 4596.94 1451.5 4610.94 1457.83 4622.71C1464.15 4634.48 1472.49 4640.37 1482.84 4640.37C1490.55 4640.37 1496.92 4637.12 1501.93 4630.63C1506.95 4624.13 1509.46 4612.97 1509.46 4597.14C1509.46 4577.34 1505.28 4561.75 1496.92 4550.39C1491.27 4542.59 1484.07 4538.7 1475.32 4538.7Z" fill="#4c3d3d" fill-rule="nonzero" opacity="1" stroke="none"/>
<path d="M1590.65 4554.4C1603.46 4538.66 1615.68 4530.78 1627.29 4530.78C1633.26 4530.78 1638.4 4532.3 1642.69 4535.35C1646.99 4538.39 1650.41 4543.41 1652.96 4550.39C1654.71 4555.26 1655.59 4562.72 1655.59 4572.79L1655.59 4620.4C1655.59 4627.46 1656.14 4632.25 1657.26 4634.77C1658.13 4636.8 1659.54 4638.38 1661.49 4639.52C1663.44 4640.65 1667.04 4641.22 1672.3 4641.22L1672.3 4645.6L1618.22 4645.6L1618.22 4641.22L1620.49 4641.22C1625.58 4641.22 1629.14 4640.43 1631.17 4638.85C1633.2 4637.26 1634.62 4634.93 1635.41 4631.85C1635.73 4630.63 1635.89 4626.81 1635.89 4620.4L1635.89 4574.74C1635.89 4564.59 1634.6 4557.23 1632.01 4552.64C1629.42 4548.05 1625.07 4545.76 1618.94 4545.76C1609.47 4545.76 1600.04 4551.04 1590.65 4561.59L1590.65 4620.4C1590.65 4627.95 1591.08 4632.62 1591.96 4634.4C1593.07 4636.76 1594.61 4638.48 1596.56 4639.58C1598.51 4640.67 1602.46 4641.22 1608.43 4641.22L1608.43 4645.6L1554.36 4645.6L1554.36 4641.22L1556.75 4641.22C1562.32 4641.22 1566.08 4639.78 1568.03 4636.9C1569.98 4634.02 1570.95 4628.52 1570.95 4620.4L1570.95 4579C1570.95 4565.61 1570.65 4557.45 1570.06 4554.53C1569.46 4551.6 1568.54 4549.62 1567.31 4548.56C1566.08 4547.5 1564.43 4546.98 1562.36 4546.98C1560.13 4546.98 1557.46 4547.59 1554.36 4548.8L1552.57 4544.42L1585.51 4530.78L1590.65 4530.78L1590.65 4554.4Z" fill="#4c3d3d" fill-rule="nonzero" opacity="1" stroke="none"/>
<path d="M1762.68 4530.78L1762.68 4568.77L1758.74 4568.77C1755.72 4556.84 1751.84 4548.72 1747.1 4544.42C1742.37 4540.12 1736.34 4537.97 1729.02 4537.97C1723.45 4537.97 1718.95 4539.47 1715.53 4542.47C1712.11 4545.48 1710.4 4548.8 1710.4 4552.46C1710.4 4557 1711.67 4560.9 1714.22 4564.15C1716.68 4567.47 1721.7 4571 1729.26 4574.74L1746.68 4583.38C1762.84 4591.42 1770.92 4602.01 1770.92 4615.16C1770.92 4625.31 1767.16 4633.49 1759.64 4639.7C1752.12 4645.91 1743.7 4649.01 1734.39 4649.01C1727.7 4649.01 1720.06 4647.8 1711.47 4645.36C1708.84 4644.55 1706.7 4644.14 1705.02 4644.14C1703.19 4644.14 1701.76 4645.2 1700.73 4647.31L1696.79 4647.31L1696.79 4607.49L1700.73 4607.49C1702.95 4618.86 1707.21 4627.42 1713.5 4633.19C1719.79 4638.95 1726.83 4641.83 1734.63 4641.83C1740.12 4641.83 1744.6 4640.19 1748.06 4636.9C1751.52 4633.61 1753.25 4629.65 1753.25 4625.03C1753.25 4619.43 1751.32 4614.72 1747.46 4610.9C1743.6 4607.09 1735.9 4602.26 1724.36 4596.41C1712.82 4590.57 1705.26 4585.29 1701.68 4580.58C1698.1 4575.96 1696.31 4570.11 1696.31 4563.05C1696.31 4553.88 1699.39 4546.21 1705.56 4540.04C1711.73 4533.87 1719.71 4530.78 1729.5 4530.78C1733.79 4530.78 1739.01 4531.72 1745.13 4533.58C1749.19 4534.8 1751.9 4535.41 1753.25 4535.41C1754.52 4535.41 1755.52 4535.13 1756.23 4534.56C1756.95 4533.99 1757.79 4532.73 1758.74 4530.78L1762.68 4530.78Z" fill="#4c3d3d" fill-rule="nonzero" opacity="1" stroke="none"/>
<path d="M1894.01 4534.07L1894.01 4601.65C1894.01 4614.56 1894.31 4622.45 1894.9 4625.33C1895.5 4628.21 1896.46 4630.22 1897.77 4631.36C1899.08 4632.5 1900.61 4633.06 1902.36 4633.06C1904.83 4633.06 1907.62 4632.37 1910.72 4630.99L1912.39 4635.26L1879.68 4649.01L1874.31 4649.01L1874.31 4625.39C1864.92 4635.78 1857.76 4642.32 1852.82 4645C1847.89 4647.67 1842.68 4649.01 1837.19 4649.01C1831.06 4649.01 1825.75 4647.21 1821.25 4643.6C1816.75 4639.98 1813.63 4635.34 1811.88 4629.65C1810.13 4623.97 1809.25 4615.94 1809.25 4605.54L1809.25 4555.74C1809.25 4550.47 1808.7 4546.81 1807.58 4544.79C1806.47 4542.76 1804.82 4541.19 1802.63 4540.1C1800.44 4539 1796.48 4538.49 1790.75 4538.58L1790.75 4534.07L1829.07 4534.07L1829.07 4608.71C1829.07 4619.1 1830.84 4625.92 1834.38 4629.17C1837.92 4632.41 1842.2 4634.04 1847.21 4634.04C1850.64 4634.04 1854.52 4632.94 1858.85 4630.75C1863.19 4628.56 1868.34 4624.38 1874.31 4618.21L1874.31 4555.01C1874.31 4548.68 1873.18 4544.4 1870.91 4542.17C1868.64 4539.93 1863.93 4538.74 1856.76 4538.58L1856.76 4534.07L1894.01 4534.07Z" fill="#4c3d3d" fill-rule="nonzero" opacity="1" stroke="none"/>
<path d="M1968.99 4472.46L1968.99 4620.4C1968.99 4627.38 1969.49 4632.01 1970.48 4634.28C1971.48 4636.55 1973.01 4638.28 1975.08 4639.46C1977.15 4640.63 1981.01 4641.22 1986.66 4641.22L1986.66 4645.6L1933.06 4645.6L1933.06 4641.22C1938.08 4641.22 1941.5 4640.69 1943.33 4639.64C1945.16 4638.58 1946.59 4636.84 1947.63 4634.4C1948.66 4631.97 1949.18 4627.3 1949.18 4620.4L1949.18 4519.09C1949.18 4506.51 1948.9 4498.78 1948.34 4495.9C1947.78 4493.02 1946.89 4491.05 1945.66 4489.99C1944.42 4488.94 1942.85 4488.41 1940.94 4488.41C1938.87 4488.41 1936.24 4489.06 1933.06 4490.36L1931.03 4486.1L1963.62 4472.46L1968.99 4472.46Z" fill="#4c3d3d" fill-rule="nonzero" opacity="1" stroke="none"/>
<path d="M2042.07 4497.42L2042.07 4534.07L2067.61 4534.07L2067.61 4542.59L2042.07 4542.59L2042.07 4614.92C2042.07 4622.15 2043.08 4627.02 2045.11 4629.53C2047.14 4632.05 2049.75 4633.31 2052.93 4633.31C2055.56 4633.31 2058.1 4632.47 2060.57 4630.81C2063.04 4629.15 2064.95 4626.69 2066.3 4623.44L2070.95 4623.44C2068.17 4631.4 2064.23 4637.39 2059.14 4641.4C2054.04 4645.42 2048.79 4647.43 2043.38 4647.43C2039.72 4647.43 2036.14 4646.4 2032.64 4644.33C2029.14 4642.26 2026.55 4639.29 2024.88 4635.44C2023.21 4631.58 2022.37 4625.64 2022.37 4617.6L2022.37 4542.59L2005.06 4542.59L2005.06 4538.58C2009.44 4536.79 2013.92 4533.77 2018.49 4529.5C2023.07 4525.24 2027.15 4520.19 2030.73 4514.34C2032.56 4511.26 2035.1 4505.62 2038.37 4497.42L2042.07 4497.42Z" fill="#4c3d3d" fill-rule="nonzero" opacity="1" stroke="none"/>
<path d="M2151.19 4629.53C2139.97 4638.38 2132.93 4643.49 2130.06 4644.87C2125.77 4646.9 2121.19 4647.92 2116.34 4647.92C2108.77 4647.92 2102.55 4645.28 2097.65 4640C2092.76 4634.73 2090.31 4627.79 2090.31 4619.18C2090.31 4613.74 2091.51 4609.04 2093.89 4605.06C2097.16 4599.54 2102.83 4594.34 2110.9 4589.47C2118.98 4584.6 2132.41 4578.68 2151.19 4571.69L2151.19 4567.31C2151.19 4556.19 2149.46 4548.56 2146 4544.42C2142.54 4540.28 2137.5 4538.21 2130.9 4538.21C2125.88 4538.21 2121.91 4539.59 2118.96 4542.35C2115.94 4545.11 2114.43 4548.28 2114.43 4551.85L2114.66 4558.91C2114.66 4562.64 2113.73 4565.53 2111.86 4567.55C2109.99 4569.58 2107.54 4570.6 2104.52 4570.6C2101.57 4570.6 2099.17 4569.54 2097.3 4567.43C2095.43 4565.32 2094.49 4562.44 2094.49 4558.79C2094.49 4551.81 2097.99 4545.39 2104.99 4539.55C2112 4533.7 2121.83 4530.78 2134.48 4530.78C2144.19 4530.78 2152.15 4532.45 2158.35 4535.77C2163.05 4538.29 2166.51 4542.23 2168.74 4547.59C2170.17 4551.08 2170.89 4558.22 2170.89 4569.02L2170.89 4606.88C2170.89 4617.52 2171.09 4624.03 2171.48 4626.43C2171.88 4628.82 2172.54 4630.43 2173.45 4631.24C2174.37 4632.05 2175.42 4632.45 2176.62 4632.45C2177.89 4632.45 2179.01 4632.17 2179.96 4631.6C2181.63 4630.55 2184.85 4627.58 2189.63 4622.71L2189.63 4629.53C2180.72 4641.71 2172.2 4647.8 2164.08 4647.8C2160.18 4647.8 2157.08 4646.42 2154.77 4643.66C2152.46 4640.9 2151.27 4636.19 2151.19 4629.53ZM2151.19 4621.62L2151.19 4579.12C2139.17 4583.99 2131.42 4587.44 2127.91 4589.47C2121.63 4593.04 2117.13 4596.78 2114.43 4600.67C2111.72 4604.57 2110.37 4608.83 2110.37 4613.46C2110.37 4619.3 2112.08 4624.15 2115.5 4628.01C2118.92 4631.87 2122.86 4633.79 2127.32 4633.79C2133.37 4633.79 2141.32 4629.74 2151.19 4621.62Z" fill="#4c3d3d" fill-rule="nonzero" opacity="1" stroke="none"/>
<path d="M2240.62 4554.4C2253.43 4538.66 2265.65 4530.78 2277.27 4530.78C2283.24 4530.78 2288.37 4532.3 2292.67 4535.35C2296.96 4538.39 2300.39 4543.41 2302.93 4550.39C2304.68 4555.26 2305.56 4562.72 2305.56 4572.79L2305.56 4620.4C2305.56 4627.46 2306.12 4632.25 2307.23 4634.77C2308.1 4636.8 2309.52 4638.38 2311.47 4639.52C2313.42 4640.65 2317.02 4641.22 2322.27 4641.22L2322.27 4645.6L2268.19 4645.6L2268.19 4641.22L2270.46 4641.22C2275.56 4641.22 2279.12 4640.43 2281.15 4638.85C2283.18 4637.26 2284.59 4634.93 2285.38 4631.85C2285.7 4630.63 2285.86 4626.81 2285.86 4620.4L2285.86 4574.74C2285.86 4564.59 2284.57 4557.23 2281.98 4552.64C2279.4 4548.05 2275.04 4545.76 2268.91 4545.76C2259.44 4545.76 2250.01 4551.04 2240.62 4561.59L2240.62 4620.4C2240.62 4627.95 2241.06 4632.62 2241.93 4634.4C2243.05 4636.76 2244.58 4638.48 2246.53 4639.58C2248.48 4640.67 2252.44 4641.22 2258.41 4641.22L2258.41 4645.6L2204.33 4645.6L2204.33 4641.22L2206.72 4641.22C2212.29 4641.22 2216.05 4639.78 2218 4636.9C2219.95 4634.02 2220.92 4628.52 2220.92 4620.4L2220.92 4579C2220.92 4565.61 2220.63 4557.45 2220.03 4554.53C2219.43 4551.6 2218.52 4549.62 2217.28 4548.56C2216.05 4547.5 2214.4 4546.98 2212.33 4546.98C2210.1 4546.98 2207.43 4547.59 2204.33 4548.8L2202.54 4544.42L2235.49 4530.78L2240.62 4530.78L2240.62 4554.4Z" fill="#4c3d3d" fill-rule="nonzero" opacity="1" stroke="none"/>
<path d="M2434.86 4603.23C2431.91 4617.92 2426.14 4629.23 2417.55 4637.14C2408.95 4645.06 2399.44 4649.01 2389.02 4649.01C2376.6 4649.01 2365.78 4643.7 2356.55 4633.06C2347.32 4622.43 2342.7 4608.06 2342.7 4589.96C2342.7 4572.43 2347.81 4558.18 2358.04 4547.22C2368.27 4536.26 2380.54 4530.78 2394.87 4530.78C2405.61 4530.78 2414.44 4533.68 2421.37 4539.49C2428.29 4545.29 2431.75 4551.32 2431.75 4557.57C2431.75 4560.65 2430.78 4563.15 2428.83 4565.06C2426.88 4566.97 2424.15 4567.92 2420.65 4567.92C2415.96 4567.92 2412.41 4566.38 2410.03 4563.29C2408.67 4561.59 2407.78 4558.34 2407.34 4553.55C2406.9 4548.76 2405.29 4545.11 2402.51 4542.59C2399.72 4540.16 2395.86 4538.94 2390.93 4538.94C2382.97 4538.94 2376.56 4541.94 2371.71 4547.95C2365.26 4555.91 2362.04 4566.42 2362.04 4579.49C2362.04 4592.8 2365.24 4604.55 2371.65 4614.74C2378.06 4624.93 2386.71 4630.02 2397.61 4630.02C2405.41 4630.02 2412.41 4627.3 2418.62 4621.86C2423 4618.13 2427.26 4611.35 2431.39 4601.53L2434.86 4603.23Z" fill="#4c3d3d" fill-rule="nonzero" opacity="1" stroke="none"/>
<path d="M2455.29 4534.07L2506.26 4534.07L2506.26 4538.58L2503.75 4538.58C2500.17 4538.58 2497.49 4539.37 2495.7 4540.95C2493.9 4542.53 2493.01 4544.5 2493.01 4546.86C2493.01 4550.02 2494.32 4554.4 2496.95 4560.01L2523.57 4616.26L2548.04 4554.65C2549.39 4551.32 2550.07 4548.03 2550.07 4544.79C2550.07 4543.32 2549.79 4542.23 2549.23 4541.5C2548.6 4540.6 2547.6 4539.89 2546.25 4539.37C2544.9 4538.84 2542.51 4538.58 2539.09 4538.58L2539.09 4534.07L2574.66 4534.07L2574.66 4538.58C2571.72 4538.9 2569.45 4539.55 2567.86 4540.52C2566.26 4541.5 2564.51 4543.32 2562.6 4546C2561.89 4547.14 2560.53 4550.26 2558.54 4555.38L2514.02 4666.67C2509.72 4677.47 2504.09 4685.62 2497.13 4691.14C2490.16 4696.66 2483.46 4699.42 2477.01 4699.42C2472.32 4699.42 2468.46 4698.04 2465.43 4695.28C2462.41 4692.52 2460.9 4689.36 2460.9 4685.79C2460.9 4682.38 2461.99 4679.64 2464.18 4677.57C2466.37 4675.5 2469.37 4674.46 2473.19 4674.46C2475.82 4674.46 2479.4 4675.36 2483.94 4677.14C2487.12 4678.36 2489.11 4678.97 2489.91 4678.97C2492.29 4678.97 2494.9 4677.71 2497.72 4675.19C2500.55 4672.68 2503.39 4667.81 2506.26 4660.58L2514.02 4641.22L2474.75 4557.08C2473.55 4554.57 2471.64 4551.44 2469.02 4547.71C2467.03 4544.87 2465.39 4542.96 2464.12 4541.98C2462.29 4540.69 2459.35 4539.55 2455.29 4538.58L2455.29 4534.07Z" fill="#4c3d3d" fill-rule="nonzero" opacity="1" stroke="none"/>
<path d="M2757.57 4590.32L2694.9 4590.32L2683.92 4616.38C2681.22 4622.79 2679.86 4627.58 2679.86 4630.75C2679.86 4633.27 2681.04 4635.48 2683.39 4637.39C2685.73 4639.29 2690.81 4640.53 2698.61 4641.1L2698.61 4645.6L2647.63 4645.6L2647.63 4641.1C2654.4 4639.88 2658.78 4638.3 2660.76 4636.35C2664.82 4632.45 2669.32 4624.54 2674.25 4612.61L2731.19 4476.72L2735.37 4476.72L2791.72 4614.07C2796.25 4625.11 2800.37 4632.27 2804.07 4635.56C2807.77 4638.85 2812.92 4640.69 2819.53 4641.1L2819.53 4645.6L2755.66 4645.6L2755.66 4641.1C2762.11 4640.77 2766.47 4639.68 2768.74 4637.81C2771 4635.95 2772.14 4633.67 2772.14 4630.99C2772.14 4627.42 2770.55 4621.78 2767.36 4614.07L2757.57 4590.32ZM2754.23 4581.31L2726.78 4514.59L2698.61 4581.31L2754.23 4581.31Z" fill="#4c3d3d" fill-rule="nonzero" opacity="1" stroke="none"/>
<path d="M2911.58 4530.78L2911.58 4568.77L2907.64 4568.77C2904.62 4556.84 2900.74 4548.72 2896.01 4544.42C2891.27 4540.12 2885.24 4537.97 2877.92 4537.97C2872.35 4537.97 2867.85 4539.47 2864.43 4542.47C2861.01 4545.48 2859.3 4548.8 2859.3 4552.46C2859.3 4557 2860.57 4560.9 2863.12 4564.15C2865.59 4567.47 2870.6 4571 2878.16 4574.74L2895.59 4583.38C2911.74 4591.42 2919.82 4602.01 2919.82 4615.16C2919.82 4625.31 2916.06 4633.49 2908.54 4639.7C2901.02 4645.91 2892.6 4649.01 2883.29 4649.01C2876.61 4649.01 2868.97 4647.8 2860.37 4645.36C2857.75 4644.55 2855.6 4644.14 2853.93 4644.14C2852.1 4644.14 2850.66 4645.2 2849.63 4647.31L2845.69 4647.31L2845.69 4607.49L2849.63 4607.49C2851.86 4618.86 2856.12 4627.42 2862.4 4633.19C2868.69 4638.95 2875.73 4641.83 2883.53 4641.83C2889.02 4641.83 2893.5 4640.19 2896.96 4636.9C2900.42 4633.61 2902.15 4629.65 2902.15 4625.03C2902.15 4619.43 2900.22 4614.72 2896.36 4610.9C2892.5 4607.09 2884.8 4602.26 2873.26 4596.41C2861.73 4590.57 2854.17 4585.29 2850.58 4580.58C2847 4575.96 2845.21 4570.11 2845.21 4563.05C2845.21 4553.88 2848.3 4546.21 2854.46 4540.04C2860.63 4533.87 2868.61 4530.78 2878.4 4530.78C2882.7 4530.78 2887.91 4531.72 2894.04 4533.58C2898.09 4534.8 2900.8 4535.41 2902.15 4535.41C2903.43 4535.41 2904.42 4535.13 2905.14 4534.56C2905.85 4533.99 2906.69 4532.73 2907.64 4530.78L2911.58 4530.78Z" fill="#4c3d3d" fill-rule="nonzero" opacity="1" stroke="none"/>
<path d="M3017.72 4530.78L3017.72 4568.77L3013.78 4568.77C3010.76 4556.84 3006.88 4548.72 3002.15 4544.42C2997.41 4540.12 2991.38 4537.97 2984.06 4537.97C2978.49 4537.97 2973.99 4539.47 2970.57 4542.47C2967.15 4545.48 2965.44 4548.8 2965.44 4552.46C2965.44 4557 2966.71 4560.9 2969.26 4564.15C2971.73 4567.47 2976.74 4571 2984.3 4574.74L3001.73 4583.38C3017.88 4591.42 3025.96 4602.01 3025.96 4615.16C3025.96 4625.31 3022.2 4633.49 3014.68 4639.7C3007.16 4645.91 2998.74 4649.01 2989.43 4649.01C2982.75 4649.01 2975.11 4647.8 2966.51 4645.36C2963.89 4644.55 2961.74 4644.14 2960.07 4644.14C2958.24 4644.14 2956.8 4645.2 2955.77 4647.31L2951.83 4647.31L2951.83 4607.49L2955.77 4607.49C2958 4618.86 2962.26 4627.42 2968.54 4633.19C2974.83 4638.95 2981.87 4641.83 2989.67 4641.83C2995.16 4641.83 2999.64 4640.19 3003.1 4636.9C3006.56 4633.61 3008.29 4629.65 3008.29 4625.03C3008.29 4619.43 3006.36 4614.72 3002.5 4610.9C2998.64 4607.09 2990.94 4602.26 2979.41 4596.41C2967.87 4590.57 2960.31 4585.29 2956.72 4580.58C2953.14 4575.96 2951.35 4570.11 2951.35 4563.05C2951.35 4553.88 2954.44 4546.21 2960.6 4540.04C2966.77 4533.87 2974.75 4530.78 2984.54 4530.78C2988.84 4530.78 2994.05 4531.72 3000.18 4533.58C3004.23 4534.8 3006.94 4535.41 3008.29 4535.41C3009.57 4535.41 3010.56 4535.13 3011.28 4534.56C3011.99 4533.99 3012.83 4532.73 3013.78 4530.78L3017.72 4530.78Z" fill="#4c3d3d" fill-rule="nonzero" opacity="1" stroke="none"/>
<path d="M3106.67 4530.78C3123.23 4530.78 3136.52 4537.2 3146.54 4550.02C3155.06 4560.98 3159.32 4573.56 3159.32 4587.77C3159.32 4597.75 3156.97 4607.86 3152.27 4618.09C3147.58 4628.31 3141.11 4636.03 3132.88 4641.22C3124.64 4646.42 3115.47 4649.01 3105.36 4649.01C3088.89 4649.01 3075.8 4642.32 3066.09 4628.92C3057.89 4617.64 3053.79 4604.98 3053.79 4590.93C3053.79 4580.71 3056.28 4570.54 3061.25 4560.43C3066.23 4550.33 3072.77 4542.86 3080.89 4538.03C3089.01 4533.2 3097.6 4530.78 3106.67 4530.78ZM3102.97 4538.7C3098.76 4538.7 3094.52 4539.98 3090.26 4542.53C3086 4545.09 3082.56 4549.57 3079.94 4555.99C3077.31 4562.4 3076 4570.64 3076 4580.71C3076 4596.94 3079.16 4610.94 3085.49 4622.71C3091.81 4634.48 3100.15 4640.37 3110.49 4640.37C3118.21 4640.37 3124.58 4637.12 3129.59 4630.63C3134.61 4624.13 3137.11 4612.97 3137.11 4597.14C3137.11 4577.34 3132.94 4561.75 3124.58 4550.39C3118.93 4542.59 3111.73 4538.7 3102.97 4538.7Z" fill="#4c3d3d" fill-rule="nonzero" opacity="1" stroke="none"/>
<path d="M3279.3 4603.23C3276.36 4617.92 3270.59 4629.23 3262 4637.14C3253.4 4645.06 3243.89 4649.01 3233.47 4649.01C3221.05 4649.01 3210.23 4643.7 3201 4633.06C3191.77 4622.43 3187.15 4608.06 3187.15 4589.96C3187.15 4572.43 3192.26 4558.18 3202.49 4547.22C3212.72 4536.26 3224.99 4530.78 3239.32 4530.78C3250.06 4530.78 3258.89 4533.68 3265.82 4539.49C3272.74 4545.29 3276.2 4551.32 3276.2 4557.57C3276.2 4560.65 3275.23 4563.15 3273.28 4565.06C3271.33 4566.97 3268.6 4567.92 3265.1 4567.92C3260.4 4567.92 3256.86 4566.38 3254.48 4563.29C3253.12 4561.59 3252.23 4558.34 3251.79 4553.55C3251.35 4548.76 3249.74 4545.11 3246.96 4542.59C3244.17 4540.16 3240.31 4538.94 3235.38 4538.94C3227.42 4538.94 3221.01 4541.94 3216.16 4547.95C3209.71 4555.91 3206.49 4566.42 3206.49 4579.49C3206.49 4592.8 3209.69 4604.55 3216.1 4614.74C3222.5 4624.93 3231.16 4630.02 3242.06 4630.02C3249.86 4630.02 3256.86 4627.3 3263.07 4621.86C3267.45 4618.13 3271.7 4611.35 3275.84 4601.53L3279.3 4603.23Z" fill="#4c3d3d" fill-rule="nonzero" opacity="1" stroke="none"/>
<path d="M3333.76 4472.46C3337.1 4472.46 3339.94 4473.66 3342.29 4476.05C3344.64 4478.44 3345.81 4481.35 3345.81 4484.76C3345.81 4488.17 3344.64 4491.09 3342.29 4493.52C3339.94 4495.96 3337.1 4497.18 3333.76 4497.18C3330.41 4497.18 3327.55 4495.96 3325.16 4493.52C3322.78 4491.09 3321.58 4488.17 3321.58 4484.76C3321.58 4481.35 3322.76 4478.44 3325.1 4476.05C3327.45 4473.66 3330.34 4472.46 3333.76 4472.46ZM3343.67 4530.78L3343.67 4620.4C3343.67 4627.38 3344.16 4632.03 3345.16 4634.34C3346.15 4636.66 3347.62 4638.38 3349.57 4639.52C3351.52 4640.65 3355.08 4641.22 3360.26 4641.22L3360.26 4645.6L3307.14 4645.6L3307.14 4641.22C3312.47 4641.22 3316.05 4640.69 3317.88 4639.64C3319.71 4638.58 3321.16 4636.84 3322.24 4634.4C3323.31 4631.97 3323.85 4627.3 3323.85 4620.4L3323.85 4577.42C3323.85 4565.32 3323.49 4557.49 3322.78 4553.92C3322.22 4551.32 3321.34 4549.51 3320.15 4548.5C3318.96 4547.48 3317.32 4546.98 3315.25 4546.98C3313.03 4546.98 3310.32 4547.59 3307.14 4548.8L3305.47 4544.42L3338.41 4530.78L3343.67 4530.78Z" fill="#4c3d3d" fill-rule="nonzero" opacity="1" stroke="none"/>
<path d="M3446.82 4629.53C3435.6 4638.38 3428.56 4643.49 3425.69 4644.87C3421.39 4646.9 3416.82 4647.92 3411.96 4647.92C3404.4 4647.92 3398.18 4645.28 3393.28 4640C3388.39 4634.73 3385.94 4627.79 3385.94 4619.18C3385.94 4613.74 3387.14 4609.04 3389.52 4605.06C3392.79 4599.54 3398.46 4594.34 3406.53 4589.47C3414.61 4584.6 3428.04 4578.68 3446.82 4571.69L3446.82 4567.31C3446.82 4556.19 3445.09 4548.56 3441.63 4544.42C3438.17 4540.28 3433.13 4538.21 3426.53 4538.21C3421.51 4538.21 3417.54 4539.59 3414.59 4542.35C3411.57 4545.11 3410.05 4548.28 3410.05 4551.85L3410.29 4558.91C3410.29 4562.64 3409.36 4565.53 3407.49 4567.55C3405.62 4569.58 3403.17 4570.6 3400.15 4570.6C3397.2 4570.6 3394.8 4569.54 3392.92 4567.43C3391.05 4565.32 3390.12 4562.44 3390.12 4558.79C3390.12 4551.81 3393.62 4545.39 3400.62 4539.55C3407.63 4533.7 3417.46 4530.78 3430.11 4530.78C3439.82 4530.78 3447.78 4532.45 3453.98 4535.77C3458.68 4538.29 3462.14 4542.23 3464.37 4547.59C3465.8 4551.08 3466.52 4558.22 3466.52 4569.02L3466.52 4606.88C3466.52 4617.52 3466.72 4624.03 3467.11 4626.43C3467.51 4628.82 3468.17 4630.43 3469.08 4631.24C3470 4632.05 3471.05 4632.45 3472.25 4632.45C3473.52 4632.45 3474.63 4632.17 3475.59 4631.6C3477.26 4630.55 3480.48 4627.58 3485.26 4622.71L3485.26 4629.53C3476.35 4641.71 3467.83 4647.8 3459.71 4647.8C3455.81 4647.8 3452.71 4646.42 3450.4 4643.66C3448.09 4640.9 3446.9 4636.19 3446.82 4629.53ZM3446.82 4621.62L3446.82 4579.12C3434.8 4583.99 3427.05 4587.44 3423.54 4589.47C3417.26 4593.04 3412.76 4596.78 3410.05 4600.67C3407.35 4604.57 3406 4608.83 3406 4613.46C3406 4619.3 3407.71 4624.15 3411.13 4628.01C3414.55 4631.87 3418.49 4633.79 3422.95 4633.79C3428.99 4633.79 3436.95 4629.74 3446.82 4621.62Z" fill="#4c3d3d" fill-rule="nonzero" opacity="1" stroke="none"/>
<path d="M3536.13 4497.42L3536.13 4534.07L3561.68 4534.07L3561.68 4542.59L3536.13 4542.59L3536.13 4614.92C3536.13 4622.15 3537.14 4627.02 3539.17 4629.53C3541.2 4632.05 3543.81 4633.31 3546.99 4633.31C3549.62 4633.31 3552.17 4632.47 3554.63 4630.81C3557.1 4629.15 3559.01 4626.69 3560.36 4623.44L3565.02 4623.44C3562.23 4631.4 3558.29 4637.39 3553.2 4641.4C3548.11 4645.42 3542.85 4647.43 3537.44 4647.43C3533.78 4647.43 3530.2 4646.4 3526.7 4644.33C3523.2 4642.26 3520.61 4639.29 3518.94 4635.44C3517.27 4631.58 3516.43 4625.64 3516.43 4617.6L3516.43 4542.59L3499.12 4542.59L3499.12 4538.58C3503.5 4536.79 3507.98 4533.77 3512.55 4529.5C3517.13 4525.24 3521.21 4520.19 3524.79 4514.34C3526.62 4511.26 3529.17 4505.62 3532.43 4497.42L3536.13 4497.42Z" fill="#4c3d3d" fill-rule="nonzero" opacity="1" stroke="none"/>
<path d="M3601.68 4576.08C3601.6 4592.64 3605.54 4605.63 3613.5 4615.04C3621.46 4624.46 3630.81 4629.17 3641.55 4629.17C3648.72 4629.17 3654.94 4627.16 3660.24 4623.14C3665.53 4619.12 3669.96 4612.24 3673.55 4602.5L3677.25 4604.94C3675.58 4616.06 3670.72 4626.18 3662.68 4635.32C3654.65 4644.45 3644.58 4649.01 3632.48 4649.01C3619.35 4649.01 3608.11 4643.8 3598.76 4633.37C3589.41 4622.94 3584.73 4608.91 3584.73 4591.3C3584.73 4572.22 3589.53 4557.35 3599.12 4546.67C3608.71 4536 3620.74 4530.66 3635.23 4530.66C3647.48 4530.66 3657.55 4534.78 3665.43 4543.02C3673.31 4551.26 3677.25 4562.28 3677.25 4576.08L3601.68 4576.08ZM3601.68 4569.02L3652.3 4569.02C3651.9 4561.87 3651.06 4556.84 3649.79 4553.92C3647.8 4549.37 3644.84 4545.8 3640.9 4543.2C3636.96 4540.6 3632.84 4539.31 3628.54 4539.31C3621.94 4539.31 3616.03 4541.92 3610.82 4547.16C3605.6 4552.4 3602.56 4559.68 3601.68 4569.02Z" fill="#4c3d3d" fill-rule="nonzero" opacity="1" stroke="none"/>
<path d="M3773.48 4530.78L3773.48 4568.77L3769.54 4568.77C3766.52 4556.84 3762.64 4548.72 3757.9 4544.42C3753.17 4540.12 3747.14 4537.97 3739.82 4537.97C3734.25 4537.97 3729.75 4539.47 3726.33 4542.47C3722.91 4545.48 3721.19 4548.8 3721.19 4552.46C3721.19 4557 3722.47 4560.9 3725.01 4564.15C3727.48 4567.47 3732.49 4571 3740.05 4574.74L3757.48 4583.38C3773.64 4591.42 3781.72 4602.01 3781.72 4615.16C3781.72 4625.31 3777.96 4633.49 3770.43 4639.7C3762.91 4645.91 3754.5 4649.01 3745.19 4649.01C3738.5 4649.01 3730.86 4647.8 3722.27 4645.36C3719.64 4644.55 3717.49 4644.14 3715.82 4644.14C3713.99 4644.14 3712.56 4645.2 3711.53 4647.31L3707.59 4647.31L3707.59 4607.49L3711.53 4607.49C3713.75 4618.86 3718.01 4627.42 3724.3 4633.19C3730.58 4638.95 3737.63 4641.83 3745.43 4641.83C3750.92 4641.83 3755.39 4640.19 3758.86 4636.9C3762.32 4633.61 3764.05 4629.65 3764.05 4625.03C3764.05 4619.43 3762.12 4614.72 3758.26 4610.9C3754.4 4607.09 3746.7 4602.26 3735.16 4596.41C3723.62 4590.57 3716.06 4585.29 3712.48 4580.58C3708.9 4575.96 3707.11 4570.11 3707.11 4563.05C3707.11 4553.88 3710.19 4546.21 3716.36 4540.04C3722.53 4533.87 3730.51 4530.78 3740.29 4530.78C3744.59 4530.78 3749.8 4531.72 3755.93 4533.58C3759.99 4534.8 3762.7 4535.41 3764.05 4535.41C3765.32 4535.41 3766.32 4535.13 3767.03 4534.56C3767.75 4533.99 3768.58 4532.73 3769.54 4530.78L3773.48 4530.78Z" fill="#4c3d3d" fill-rule="nonzero" opacity="1" stroke="none"/>
<path d="M3814.44 4687.13L3814.44 4681.77C3822.64 4679.01 3828.99 4674.73 3833.48 4668.92C3837.98 4663.12 3840.23 4656.97 3840.23 4650.48C3840.23 4648.93 3839.87 4647.63 3839.15 4646.58C3838.6 4645.85 3838.04 4645.48 3837.48 4645.48C3836.61 4645.48 3834.7 4646.29 3831.75 4647.92C3830.32 4648.65 3828.81 4649.01 3827.22 4649.01C3823.32 4649.01 3820.21 4647.84 3817.9 4645.48C3815.6 4643.13 3814.44 4639.88 3814.44 4635.74C3814.44 4631.76 3815.93 4628.36 3818.92 4625.51C3821.9 4622.67 3825.54 4621.25 3829.84 4621.25C3835.09 4621.25 3839.77 4623.59 3843.87 4628.25C3847.97 4632.92 3850.02 4639.11 3850.02 4646.82C3850.02 4655.18 3847.17 4662.96 3841.48 4670.14C3835.79 4677.32 3826.78 4682.99 3814.44 4687.13Z" fill="#4c3d3d" fill-rule="nonzero" opacity="1" stroke="none"/>
<path d="M4085.69 4599.94L4089.63 4600.8L4075.78 4645.6L3950.44 4645.6L3950.44 4641.1L3956.53 4641.1C3963.38 4641.1 3968.27 4638.83 3971.22 4634.28C3972.89 4631.68 3973.72 4625.68 3973.72 4616.26L3973.72 4509.72C3973.72 4499.41 3972.61 4492.95 3970.38 4490.36C3967.28 4486.79 3962.66 4485 3956.53 4485L3950.44 4485L3950.44 4480.49L4023.74 4480.49L4023.74 4485C4015.14 4484.92 4009.12 4485.73 4005.65 4487.43C4002.19 4489.14 3999.82 4491.29 3998.55 4493.89C3997.28 4496.49 3996.64 4502.7 3996.64 4512.52L3996.64 4616.26C3996.64 4623 3997.28 4627.62 3998.55 4630.14C3999.51 4631.85 4000.98 4633.1 4002.97 4633.92C4004.96 4634.73 4011.16 4635.13 4021.59 4635.13L4033.41 4635.13C4045.82 4635.13 4054.54 4634.2 4059.55 4632.33C4064.56 4630.47 4069.14 4627.16 4073.28 4622.41C4077.42 4617.66 4081.55 4610.17 4085.69 4599.94Z" fill="#4c3d3d" fill-rule="nonzero" opacity="1" stroke="none"/>
<path d="M4246.03 4599.94L4249.97 4600.8L4236.12 4645.6L4110.78 4645.6L4110.78 4641.1L4116.87 4641.1C4123.71 4641.1 4128.61 4638.83 4131.55 4634.28C4133.22 4631.68 4134.06 4625.68 4134.06 4616.26L4134.06 4509.72C4134.06 4499.41 4132.94 4492.95 4130.71 4490.36C4127.61 4486.79 4123 4485 4116.87 4485L4110.78 4485L4110.78 4480.49L4184.07 4480.49L4184.07 4485C4175.48 4484.92 4169.45 4485.73 4165.99 4487.43C4162.53 4489.14 4160.16 4491.29 4158.89 4493.89C4157.61 4496.49 4156.98 4502.7 4156.98 4512.52L4156.98 4616.26C4156.98 4623 4157.61 4627.62 4158.89 4630.14C4159.84 4631.85 4161.31 4633.1 4163.3 4633.92C4165.29 4634.73 4171.5 4635.13 4181.93 4635.13L4193.74 4635.13C4206.16 4635.13 4214.87 4634.2 4219.89 4632.33C4224.9 4630.47 4229.47 4627.16 4233.61 4622.41C4237.75 4617.66 4241.89 4610.17 4246.03 4599.94Z" fill="#4c3d3d" fill-rule="nonzero" opacity="1" stroke="none"/>
<path d="M4413.41 4476.72L4417.11 4532.85L4413.41 4532.85C4408.47 4516.05 4401.43 4503.95 4392.28 4496.57C4383.12 4489.18 4372.14 4485.49 4359.33 4485.49C4348.59 4485.49 4338.88 4488.27 4330.2 4493.83C4321.53 4499.39 4314.71 4508.26 4309.73 4520.43C4304.76 4532.61 4302.27 4547.75 4302.27 4565.85C4302.27 4580.79 4304.62 4593.73 4309.31 4604.69C4314.01 4615.65 4321.07 4624.05 4330.5 4629.9C4339.93 4635.74 4350.7 4638.66 4362.79 4638.66C4373.3 4638.66 4382.57 4636.37 4390.61 4631.78C4398.64 4627.2 4407.48 4618.09 4417.11 4604.45L4420.81 4606.88C4412.69 4621.58 4403.22 4632.33 4392.4 4639.15C4381.57 4645.97 4368.72 4649.38 4353.84 4649.38C4327.02 4649.38 4306.25 4639.23 4291.53 4618.94C4280.55 4603.84 4275.05 4586.06 4275.05 4565.61C4275.05 4549.13 4278.67 4533.99 4285.92 4520.19C4293.16 4506.39 4303.13 4495.69 4315.82 4488.1C4328.51 4480.51 4342.38 4476.72 4357.42 4476.72C4369.12 4476.72 4380.66 4479.64 4392.04 4485.49C4395.38 4487.27 4397.77 4488.17 4399.2 4488.17C4401.35 4488.17 4403.22 4487.39 4404.81 4485.85C4406.88 4483.66 4408.35 4480.62 4409.23 4476.72L4413.41 4476.72Z" fill="#4c3d3d" fill-rule="nonzero" opacity="1" stroke="none"/>
</g>
</g>
</g>
<style>
        path { fill: #000; }
        @media (prefers-color-scheme: dark) {
            path { fill: #FFF; }
        }
    </style>
</svg>
