<svg width="4632" height="4376" viewBox="0 0 4632 4376" fill="none" xmlns="http://www.w3.org/2000/svg">
<path class="favicon-star" d="M2296.88 0C2026.17 832.031 2026.17 832.031 1755.46 1664.06C1685.65 1663.44 1610.75 1688.38 1546.03 1662.21C1331.8 1575.58 1140.4 1437.55 937.085 1327.72C915.885 1351.42 914.889 1356.42 893.691 1380.12C908.592 1401.85 914.839 1433.5 938.395 1445.31C1103.86 1528.26 1279.98 1588.02 1450.78 1659.37C725.391 1664.06 362.653 1616.56 0 1668.75C2.2524 1741.98 54.5699 1837.59 54.5699 1837.59C54.5699 1837.59 177.917 1982.05 186.066 2003.65C223.883 2103.89 286.747 2252.24 351.371 2337.69C424.299 2434.13 505.561 2529.21 606.97 2595.05C724.728 2671.5 866.386 2702.52 996.095 2756.25C988.255 2795.43 970.235 2833.89 972.575 2873.78C974.755 2910.87 989.685 2947.44 1009.18 2979.07C1038.97 3027.39 1076.19 3071.7 1118.17 3109.91C1158.67 3146.79 1208.85 3171.38 1254.19 3202.12C1071.23 3783.09 1071.23 3783.09 888.281 4364.06C1546.87 3890.62 1546.88 3890.62 2205.47 3417.19C2152.74 3619.92 2152.73 3619.92 2100 3822.66C2152.09 3678.2 2196.13 3530.58 2256.28 3389.28C2264.18 3370.74 2286.47 3362.57 2301.56 3349.22C2329.89 3369.08 2371.2 3377.8 2386.55 3408.8C2451.62 3540.24 2486.15 3684.71 2535.94 3822.66C2487.9 3633.98 2487.89 3633.98 2439.84 3445.31C3082.03 3910.55 3082.04 3910.55 3724.22 4375.78C3539.07 3796.87 3539.07 3796.87 3353.91 3217.97C3407.51 3181.78 3465.69 3151.59 3514.7 3109.4C3557.43 3072.62 3596.54 3030.37 3626.97 2982.9C3647.6 2950.72 3662.58 2912.89 3665.14 2874.75C3667.83 2834.61 3649.84 2795.75 3642.19 2756.25C3761.69 2708.62 3891.81 2681.87 4000.69 2613.36C4104.98 2547.74 4194.01 2457.32 4270.63 2360.82C4340.56 2272.75 4390.91 2169.66 4435.12 2066.26C4452.52 2025.57 4611.38 1783.34 4631.25 1673.44C3902.35 1668.75 3902.35 1668.75 3173.44 1664.06C3346.16 1592.52 3524.98 1534.26 3691.58 1449.45C3718.48 1435.75 3725.41 1399.45 3742.33 1374.45C3721.5 1352.97 3721.51 1352.97 3700.67 1331.5C3495.01 1443.43 3301.53 1581.42 3083.69 1667.29C3010.18 1696.27 2925.66 1667.86 2846.64 1668.15C2571.76 834.073 2571.76 834.073 2296.88 0Z" />
<g class="favicon-butterfly">
    <path d="M1014.29 2722.08C1005.16 2768.22 977.285 2814.47 986.905 2860.51C999.575 2921.2 1035.56 2977.15 1077.15 3023.12C1128.08 3079.44 1192.25 3123.91 1258.58 3160.87C1332.62 3202.12 1412.1 3235.92 1494.53 3255.7C1601.77 3281.43 1712.6 3296.94 1822.89 3296.29C1885.26 3295.93 1951.71 3285.34 2004.86 3252.7C2060.11 3218.77 2104.92 3164.68 2132.66 3106.08C2188 2989.21 2210.52 2859.45 2249.45 2736.14C2254.97 2871.01 2254.78 3006.23 2266 3140.74C2268.22 3167.38 2274.69 3195.19 2289.59 3217.38C2297.73 3229.51 2316.23 3229.4 2329.55 3235.41C2342.69 3204.14 2365.05 3175.3 2368.98 3141.61C2384.64 3007.22 2381.48 2871.29 2387.73 2736.14C2425.31 2854.33 2449.1 2977.82 2500.46 3090.7C2527.9 3151.01 2565.05 3213.23 2620.97 3248.78C2678.99 3285.65 2753.27 3291.86 2821.94 3295.03C2916.6 3299.4 3012.83 3292.21 3105.21 3271.12C3194.38 3250.76 3280.52 3215.3 3361.05 3171.93C3428.87 3135.4 3493.15 3089.48 3546.2 3033.62C3589.1 2988.45 3628.47 2934.61 3643.76 2874.22C3656.51 2823.88 3631.76 2771.04 3625.76 2719.46C3741.61 2672.97 3857.69 2646.52 3967.44 2587.03C4043.15 2545.99 4118.07 2483.76 4176.77 2420.75C4256.76 2334.89 4334.33 2242.9 4385.65 2137.37C4423.33 2059.9 4614.54 1765.73 4611.33 1679.64C4609.89 1641.25 4450.77 1598.95 4228.6 1602.57C4006.43 1606.19 3982.5 1627.6 3722.64 1694.12C3483.55 1755.32 3408.59 1809.74 3182.18 1907.96C2907.44 2027.15 2661.32 2203.67 2400.89 2351.53C2390.75 2315.38 2394.16 2272.2 2370.46 2243.08C2352.88 2221.47 2317.6 2225.48 2291.17 2216.68C2264.45 2284.22 2264.45 2284.22 2237.73 2351.76C2083.47 2259.65 1933.73 2159.49 1774.94 2075.42C1614.57 1990.52 1532.07 1863.44 1202.34 1751.47C872.617 1639.5 679.694 1627.58 456.032 1627.53C232.371 1627.48 15.4381 1645.9 5.3041 1680.32C-7.8923 1725.14 186.487 1965.52 202.915 2009.26C245.39 2122.35 304.635 2230.6 378.067 2326.52C445.559 2414.67 526.301 2496.2 620.589 2554.82C741.681 2630.11 883.061 2666.32 1014.29 2722.08Z" />
    <path d="M3686.18 1318.17C3380.02 1491.92 3061.94 1646.17 2767.7 1839.42C2620.24 1936.27 2500.36 2069.67 2366.68 2184.8C2564.81 2036.32 2747.43 1864.54 2961.04 1739.36C3186.84 1607.04 3442.88 1534.06 3676.94 1416.98C3699.09 1405.9 3707.41 1377.93 3722.65 1358.4C3704.41 1338.29 3704.41 1338.29 3686.18 1318.17Z" />
    <path d="M899.95 1350.29C923.415 1371.22 942.185 1399.11 970.355 1413.09C1187.68 1520.99 1424.16 1590.8 1633.04 1714.26C1860.65 1848.8 2059.61 2026.76 2272.89 2183.01C2218.82 2127.17 2170.29 2065.41 2110.71 2015.49C2027.12 1945.45 1937.12 1882.96 1845.03 1824.53C1593.14 1664.72 1340.58 1505.3 1079.41 1361.15C1033.36 1335.73 980.085 1321.35 927.575 1318.17C913.483 1317.32 909.16 1339.58 899.95 1350.29Z" />
    <path d="M2388.83 3339.14C2415.13 3417.73 2442.98 3487.62 2467.72 3574.91C2480.11 3618.65 2497.76 3678.08 2508.44 3729.97C2492.16 3662.98 2464.39 3580.83 2446.12 3524.23C2426.82 3464.4 2408.13 3436.43 2387.71 3383.4C2385.77 3378.38 2385.53 3365.84 2384.45 3357.06C2386.64 3348.1 2386.64 3348.1 2388.83 3339.14Z" />
    <path d="M2255.15 3355.44C2252.73 3366.07 2250.86 3380.19 2247.89 3387.32C2225.03 3442.3 2199.88 3478.08 2178.01 3540.9C2154.18 3609.35 2133.69 3699.68 2111.52 3779.06C2117.05 3750.74 2121.95 3719.44 2128.11 3694.1C2136.75 3658.54 2146.12 3626.78 2155.74 3597.07C2182.05 3515.79 2208.43 3434.71 2235.83 3361.33C2240.66 3348.39 2246.34 3341.01 2251.99 3339.28C2253.5 3338.82 2254.09 3350.06 2255.15 3355.44Z" />
</g>
<style>
        .favicon-butterfly { fill: #FFD95A; }
        .favicon-star { fill: #4C3D3D; }
</style>
</svg>
